<?xml version="1.0" encoding="UTF-8" standalone="no"?>
<!-- Creator: CorelDRAW -->
<svg
   xmlns:dc="http://purl.org/dc/elements/1.1/"
   xmlns:cc="http://web.resource.org/cc/"
   xmlns:rdf="http://www.w3.org/1999/02/22-rdf-syntax-ns#"
   xmlns:svg="http://www.w3.org/2000/svg"
   xmlns="http://www.w3.org/2000/svg"
   xmlns:sodipodi="http://inkscape.sourceforge.net/DTD/sodipodi-0.dtd"
   xmlns:inkscape="http://www.inkscape.org/namespaces/inkscape"
   xml:space="preserve"
   width="799px"
   height="385px"
   style="shape-rendering:geometricPrecision; text-rendering:geometricPrecision; image-rendering:optimizeQuality; fill-rule:evenodd"
   viewBox="0 0 800 384"
   id="svg4007"
   sodipodi:version="0.32"
   inkscape:version="0.43"
   sodipodi:docname="Qwerty-NoNumPad.svg"
   sodipodi:docbase="/home/gburca/data/java/VirtMus/Docs/img"><metadata
   id="metadata4877"><rdf:RDF><cc:Work
       rdf:about=""><dc:format>image/svg+xml</dc:format><dc:type
         rdf:resource="http://purl.org/dc/dcmitype/StillImage" /></cc:Work></rdf:RDF></metadata><sodipodi:namedview
   inkscape:window-height="813"
   inkscape:window-width="1327"
   inkscape:pageshadow="2"
   inkscape:pageopacity="0.0"
   borderopacity="1.0"
   bordercolor="#666666"
   pagecolor="#ffffff"
   id="base"
   inkscape:zoom="1.2442955"
   inkscape:cx="395.41233"
   inkscape:cy="245.61619"
   inkscape:window-x="5"
   inkscape:window-y="55"
   inkscape:current-layer="svg4007" />
 <defs
   id="defs4009">
  <style
   type="text/css"
   id="style4011">
   
    .str0 {stroke:#202326;stroke-width:0}
    .str1 {stroke:#2B2828;stroke-width:0}
    .str2 {stroke:#2B2828;stroke-width:0}
    .fil10 {fill:none}
    .fil9 {fill:#2B2828}
    .fil1 {fill:#97C5D5}
    .fil5 {fill:#9FAACA}
    .fil4 {fill:#A8D1B1}
    .fil7 {fill:#A97CA9}
    .fil6 {fill:#E8A8A5}
    .fil3 {fill:#EDC07D}
    .fil8 {fill:#F1EFBE}
    .fil0 {fill:#F5F6F7}
    .fil2 {fill:#FFFFFF}
    .fnt4 {font-weight:normal;font-size:8;font-family:Arial}
    .fnt1 {font-weight:normal;font-size:9;font-family:Arial}
    .fnt2 {font-weight:normal;font-size:12;font-family:Arial}
    .fnt3 {font-weight:normal;font-size:13;font-family:Arial}
    .fnt0 {font-weight:normal;font-size:18;font-family:Arial}
   
  </style>
 
  
  
  
  
  
  
  
  
  
  
  
  
  
  
  
  
  
  
  
  
  
  
  
  
  
  
  
  
  
  
  
  
  
  
  
  
  
  
  
  
  
  
  
  
  
  
  
  
  
  
  
  
  
  
  
  
  
  
  
  
  
  
  
  
  
  
  
  
  
  
  
  
  
  
  
  
  
  
  
  
  
  
  
  
  
  
  
  
  
  
  
  
  
  
  
  
  
  
  
  
  
  
  
  
  
  
  
  
  
  
  
  
  
  
  
  
  
  
  
  
  
  
  
  
  
  
  
  
  
  
  
  
  
  
  
  
  
  
  
  
  
  
  
  
  
  
  
  
  
  
  
  
  
  
  
  
  
  
  
  
  
  
  
  
  
  
  
  
  
  
  
  
  
  
  
  
  
  
  
  
  
  
  
  
  
  
  
  
  
  
  
  
  
  
  
  
  
  
  
  
  
  
  
  
  
  
  
  
  
  
  
  
  
  
  
  
  
  
  
  
  
  
  
  
  
  
  
  
  
  
  
  
  
  
  
  
  
  
  
  
  
  
  
  
  
  
  
  
  
  
  
  
  
  
  
  
  
  
  
  
  
  
  
  
  
  
  
  
  
  
  
  
  
  
  
  
  
  
  
  
  
  
  
  
  
  
  
  
 </defs>
 <path
   style="fill:none;stroke:#2b2828;stroke-width:0"
   id="path4310"
   d="M 561,188 L 561,178"
   class="fil10 str1" /><path
   style="fill:none;stroke:#2b2828;stroke-width:0"
   id="path4314"
   d="M 561,203 L 561,214"
   class="fil10 str1" /><path
   style="fill:none;stroke:#2b2828;stroke-width:0"
   id="path4318"
   d="M 585,208 L 595,208"
   class="fil10 str1" /><path
   style="fill:none;stroke:#2b2828;stroke-width:0"
   id="path4322"
   d="M 536,208 L 525,208"
   class="fil10 str1" /><path
   style="fill:none;stroke:#2b2828;stroke-width:0"
   id="path4412"
   d="M 516,70 L 542,70"
   class="fil10 str1" /><path
   style="fill:none;stroke:#2b2828;stroke-width:0"
   id="path4422"
   d="M 576,69 L 601,69"
   class="fil10 str1" /><path
   style="fill:none;stroke:#2b2828;stroke-width:0"
   id="path4552"
   d="M 479,106 L 468,106"
   class="fil10 str1" /><path
   style="fill:none;stroke:#2b2828;stroke-width:0"
   id="path4738"
   d="M 702,158 L 712,158"
   class="fil10 str1" /><path
   style="fill:none;stroke:#2b2828;stroke-width:0"
   id="path4742"
   d="M 678,137 L 678,127"
   class="fil10 str1" /><path
   style="fill:none;stroke:#2b2828;stroke-width:0"
   id="path4746"
   d="M 653,158 L 643,158"
   class="fil10 str1" /><path
   style="fill:none;stroke:#2b2828;stroke-width:0"
   id="path4750"
   d="M 678,178 L 678,188"
   class="fil10 str1" /><g
   id="g4774"
   transform="matrix(0.774557,0,0,0.77345,387.422,55.8994)">
   <text
   style="font-size:9px;font-weight:normal;fill:#2b2828;font-family:Arial"
   id="text4776"
   class="fil9 fnt1"
   y="192"
   x="400">.</text>

  </g><path
   style="fill:none;stroke:#2b2828;stroke-width:0"
   id="path4836"
   d="M 642,71 L 649,71 L 649,68 L 642,68 L 642,71 z "
   class="fil10 str1" /><path
   style="fill:none;stroke:#2b2828;stroke-width:0"
   id="path4848"
   d="M 683,71 L 690,71 L 690,68 L 683,68 L 683,71 z "
   class="fil10 str1" /><path
   style="fill:none;stroke:#2b2828;stroke-width:0"
   id="path4860"
   d="M 724,71 L 731,71 L 731,68 L 724,68 L 724,71 z "
   class="fil10 str1" /><g
   id="g5312"><path
     class="fil0 str0"
     d="M 42.902153,34.507489 L 491.81056,34.507489 C 499.81578,34.507489 505.97365,42.590772 505.97365,54.266626 L 505.97365,226.71 C 505.97365,237.48771 499.81578,247.36728 491.81056,247.36728 L 42.902153,247.36728 C 34.281141,247.36728 27.507489,237.48771 27.507489,226.71 L 27.507489,54.266626 C 27.507489,42.590772 34.281141,34.507489 42.902153,34.507489 z "
     id="path4014"
     style="fill:#f5f6f7;stroke:#202326;stroke-width:0" /><path
     class="fil1 str0"
     d="M 47,96 L 67,96 C 68,96 70,97 70,99 L 70,116 C 70,118 68,119 67,119 L 47,119 C 45,119 44,118 44,116 L 44,99 C 44,97 45,96 47,96 z "
     id="path4016"
     style="fill:#97c5d5;stroke:#202326;stroke-width:0" /><path
     class="fil1 str0"
     d="M 77,96 L 97,96 C 99,96 100,97 100,99 L 100,116 C 100,118 99,119 97,119 L 77,119 C 75,119 74,118 74,116 L 74,99 C 74,97 75,96 77,96 z "
     id="path4018"
     style="fill:#97c5d5;stroke:#202326;stroke-width:0" /><path
     class="fil1 str0"
     d="M 106,96 L 126,96 C 128,96 129,97 129,99 L 129,116 C 129,118 128,119 126,119 L 106,119 C 105,119 104,118 104,116 L 104,99 C 104,97 105,96 106,96 z "
     id="path4020"
     style="fill:#97c5d5;stroke:#202326;stroke-width:0" /><path
     class="fil1 str0"
     d="M 136,96 L 156,96 C 158,96 159,97 159,99 L 159,116 C 159,118 158,119 156,119 L 136,119 C 134,119 133,118 133,116 L 133,99 C 133,97 134,96 136,96 z "
     id="path4022"
     style="fill:#97c5d5;stroke:#202326;stroke-width:0" /><path
     class="fil1 str0"
     d="M 166,96 L 186,96 C 188,96 189,97 189,99 L 189,116 C 189,118 188,119 186,119 L 166,119 C 165,119 163,118 163,116 L 163,99 C 163,97 165,96 166,96 z "
     id="path4024"
     style="fill:#97c5d5;stroke:#202326;stroke-width:0" /><path
     class="fil1 str0"
     d="M 196,96 L 215,96 C 217,96 218,97 218,99 L 218,116 C 218,118 217,119 215,119 L 196,119 C 195,119 193,118 193,116 L 193,99 C 193,97 195,96 196,96 z "
     id="path4026"
     style="fill:#97c5d5;stroke:#202326;stroke-width:0" /><path
     class="fil1 str0"
     d="M 225,96 L 245,96 C 247,96 248,97 248,99 L 248,116 C 248,118 247,119 245,119 L 225,119 C 224,119 222,118 222,116 L 222,99 C 222,97 224,96 225,96 z "
     id="path4028"
     style="fill:#97c5d5;stroke:#202326;stroke-width:0" /><path
     class="fil1 str0"
     d="M 255,96 L 275,96 C 277,96 278,97 278,99 L 278,116 C 278,118 277,119 275,119 L 255,119 C 254,119 252,118 252,116 L 252,99 C 252,97 254,96 255,96 z "
     id="path4030"
     style="fill:#97c5d5;stroke:#202326;stroke-width:0" /><path
     class="fil1 str0"
     d="M 285,96 L 304,96 C 306,96 307,97 307,99 L 307,116 C 307,118 306,119 304,119 L 285,119 C 284,119 282,118 282,116 L 282,99 C 282,97 284,96 285,96 z "
     id="path4032"
     style="fill:#97c5d5;stroke:#202326;stroke-width:0" /><path
     class="fil1 str0"
     d="M 314,96 L 334,96 C 336,96 337,97 337,99 L 337,116 C 337,118 336,119 334,119 L 314,119 C 313,119 311,118 311,116 L 311,99 C 311,97 313,96 314,96 z "
     id="path4034"
     style="fill:#97c5d5;stroke:#202326;stroke-width:0" /><path
     class="fil1 str0"
     d="M 344,96 L 364,96 C 366,96 367,97 367,99 L 367,116 C 367,118 366,119 364,119 L 344,119 C 343,119 341,118 341,116 L 341,99 C 341,97 343,96 344,96 z "
     id="path4036"
     style="fill:#97c5d5;stroke:#202326;stroke-width:0" /><path
     class="fil1 str0"
     d="M 374,96 L 394,96 C 395,96 396,97 396,99 L 396,116 C 396,118 395,119 394,119 L 374,119 C 373,119 371,118 371,116 L 371,99 C 371,97 373,96 374,96 z "
     id="path4038"
     style="fill:#97c5d5;stroke:#202326;stroke-width:0" /><path
     class="fil1 str0"
     d="M 403,96 L 423,96 C 425,96 426,97 426,99 L 426,116 C 426,118 425,119 423,119 L 403,119 C 402,119 401,118 401,116 L 401,99 C 401,97 402,96 403,96 z "
     id="path4040"
     style="fill:#97c5d5;stroke:#202326;stroke-width:0" /><path
     class="fil1 str0"
     d="M 433,96 L 453,96 C 455,96 456,97 456,99 L 456,116 C 456,118 455,119 453,119 L 433,119 C 432,119 431,118 431,116 L 431,99 C 431,97 432,96 433,96 z "
     id="path4042"
     style="fill:#97c5d5;stroke:#202326;stroke-width:0" /><path
     class="fil1 str0"
     d="M 463,96 L 483,96 C 485,96 486,97 486,99 L 486,116 C 486,118 485,119 483,119 L 463,119 C 462,119 461,118 461,116 L 461,99 C 461,97 462,96 463,96 z "
     id="path4044"
     style="fill:#97c5d5;stroke:#202326;stroke-width:0" /><path
     class="fil1 str0"
     d="M 95,121 L 114,121 C 116,121 117,122 117,124 L 117,142 C 117,143 116,145 114,145 L 95,145 C 94,145 92,143 92,142 L 92,124 C 92,122 94,121 95,121 z "
     id="path4046"
     style="fill:#97c5d5;stroke:#202326;stroke-width:0" /><path
     class="fil1 str0"
     d="M 124,121 L 144,121 C 146,121 147,122 147,124 L 147,142 C 147,143 146,145 144,145 L 124,145 C 123,145 121,143 121,142 L 121,124 C 121,122 123,121 124,121 z "
     id="path4048"
     style="fill:#97c5d5;stroke:#202326;stroke-width:0" /><path
     class="fil1 str0"
     d="M 154,121 L 174,121 C 176,121 177,122 177,124 L 177,142 C 177,143 176,145 174,145 L 154,145 C 153,145 151,143 151,142 L 151,124 C 151,122 153,121 154,121 z "
     id="path4050"
     style="fill:#97c5d5;stroke:#202326;stroke-width:0" /><path
     class="fil1 str0"
     d="M 184,121 L 203,121 C 205,121 206,122 206,124 L 206,142 C 206,143 205,145 203,145 L 184,145 C 183,145 181,143 181,142 L 181,124 C 181,122 183,121 184,121 z "
     id="path4052"
     style="fill:#97c5d5;stroke:#202326;stroke-width:0" /><path
     class="fil1 str0"
     d="M 213,121 L 233,121 C 235,121 236,122 236,124 L 236,142 C 236,143 235,145 233,145 L 213,145 C 212,145 211,143 211,142 L 211,124 C 211,122 212,121 213,121 z "
     id="path4054"
     style="fill:#97c5d5;stroke:#202326;stroke-width:0" /><path
     class="fil1 str0"
     d="M 243,121 L 263,121 C 265,121 266,122 266,124 L 266,142 C 266,143 265,145 263,145 L 243,145 C 242,145 241,143 241,142 L 241,124 C 241,122 242,121 243,121 z "
     id="path4056"
     style="fill:#97c5d5;stroke:#202326;stroke-width:0" /><path
     class="fil1 str0"
     d="M 273,121 L 293,121 C 295,121 296,122 296,124 L 296,142 C 296,143 295,145 293,145 L 273,145 C 272,145 271,143 271,142 L 271,124 C 271,122 272,121 273,121 z "
     id="path4058"
     style="fill:#97c5d5;stroke:#202326;stroke-width:0" /><path
     class="fil1 str0"
     d="M 302,121 L 322,121 C 324,121 325,122 325,124 L 325,142 C 325,143 324,145 322,145 L 302,145 C 301,145 300,143 300,142 L 300,124 C 300,122 301,121 302,121 z "
     id="path4060"
     style="fill:#97c5d5;stroke:#202326;stroke-width:0" /><path
     class="fil1 str0"
     d="M 332,121 L 352,121 C 354,121 355,122 355,124 L 355,142 C 355,143 354,145 352,145 L 332,145 C 331,145 330,143 330,142 L 330,124 C 330,122 331,121 332,121 z "
     id="path4062"
     style="fill:#97c5d5;stroke:#202326;stroke-width:0" /><path
     class="fil1 str0"
     d="M 362,121 L 382,121 C 384,121 385,122 385,124 L 385,142 C 385,143 384,145 382,145 L 362,145 C 361,145 360,143 360,142 L 360,124 C 360,122 361,121 362,121 z "
     id="path4064"
     style="fill:#97c5d5;stroke:#202326;stroke-width:0" /><path
     class="fil1 str0"
     d="M 392,121 L 411,121 C 413,121 414,122 414,124 L 414,142 C 414,143 413,145 411,145 L 392,145 C 391,145 390,143 390,142 L 390,124 C 390,122 391,121 392,121 z "
     id="path4066"
     style="fill:#97c5d5;stroke:#202326;stroke-width:0" /><path
     class="fil1 str0"
     d="M 421,121 L 441,121 C 443,121 444,122 444,124 L 444,142 C 444,143 443,145 441,145 L 421,145 C 420,145 419,143 419,142 L 419,124 C 419,122 420,121 421,121 z "
     id="path4068"
     style="fill:#97c5d5;stroke:#202326;stroke-width:0" /><path
     class="fil1 str0"
     d="M 103,147 L 122,147 C 123,147 125,148 125,149 L 125,168 C 125,169 123,170 122,170 L 103,170 C 101,170 100,169 100,168 L 100,149 C 100,148 101,147 103,147 z "
     id="path4070"
     style="fill:#97c5d5;stroke:#202326;stroke-width:0" /><path
     class="fil1 str0"
     d="M 132,147 L 152,147 C 153,147 155,148 155,149 L 155,168 C 155,169 153,170 152,170 L 132,170 C 130,170 129,169 129,168 L 129,149 C 129,148 130,147 132,147 z "
     id="path4072"
     style="fill:#97c5d5;stroke:#202326;stroke-width:0" /><path
     class="fil1 str0"
     d="M 162,147 L 182,147 C 184,147 185,148 185,149 L 185,168 C 185,169 184,170 182,170 L 162,170 C 160,170 159,169 159,168 L 159,149 C 159,148 160,147 162,147 z "
     id="path4074"
     style="fill:#97c5d5;stroke:#202326;stroke-width:0" /><path
     class="fil1 str0"
     d="M 192,147 L 211,147 C 213,147 214,148 214,149 L 214,168 C 214,169 213,170 211,170 L 192,170 C 190,170 189,169 189,168 L 189,149 C 189,148 190,147 192,147 z "
     id="path4076"
     style="fill:#97c5d5;stroke:#202326;stroke-width:0" /><path
     class="fil1 str0"
     d="M 221,147 L 241,147 C 243,147 244,148 244,149 L 244,168 C 244,169 243,170 241,170 L 221,170 C 219,170 218,169 218,168 L 218,149 C 218,148 219,147 221,147 z "
     id="path4078"
     style="fill:#97c5d5;stroke:#202326;stroke-width:0" /><path
     class="fil1 str0"
     d="M 251,147 L 271,147 C 273,147 274,148 274,149 L 274,168 C 274,169 273,170 271,170 L 251,170 C 250,170 248,169 248,168 L 248,149 C 248,148 250,147 251,147 z "
     id="path4080"
     style="fill:#97c5d5;stroke:#202326;stroke-width:0" /><path
     class="fil1 str0"
     d="M 281,147 L 300,147 C 302,147 303,148 303,149 L 303,168 C 303,169 302,170 300,170 L 281,170 C 280,170 278,169 278,168 L 278,149 C 278,148 280,147 281,147 z "
     id="path4082"
     style="fill:#97c5d5;stroke:#202326;stroke-width:0" /><path
     class="fil1 str0"
     d="M 310,147 L 330,147 C 332,147 333,148 333,149 L 333,168 C 333,169 332,170 330,170 L 310,170 C 309,170 307,169 307,168 L 307,149 C 307,148 309,147 310,147 z "
     id="path4084"
     style="fill:#97c5d5;stroke:#202326;stroke-width:0" /><path
     class="fil1 str0"
     d="M 340,147 L 360,147 C 362,147 363,148 363,149 L 363,168 C 363,169 362,170 360,170 L 340,170 C 339,170 337,169 337,168 L 337,149 C 337,148 339,147 340,147 z "
     id="path4086"
     style="fill:#97c5d5;stroke:#202326;stroke-width:0" /><path
     class="fil1 str0"
     d="M 370,147 L 390,147 C 392,147 393,148 393,149 L 393,168 C 393,169 392,170 390,170 L 370,170 C 369,170 367,169 367,168 L 367,149 C 367,148 369,147 370,147 z "
     id="path4088"
     style="fill:#97c5d5;stroke:#202326;stroke-width:0" /><path
     class="fil1 str0"
     d="M 399,147 L 419,147 C 421,147 422,148 422,149 L 422,168 C 422,169 421,170 419,170 L 399,170 C 398,170 396,169 396,168 L 396,149 C 396,148 398,147 399,147 z "
     id="path4090"
     style="fill:#97c5d5;stroke:#202326;stroke-width:0" /><path
     class="fil1 str0"
     d="M 113,172 L 134,172 C 135,172 136,174 136,175 L 136,192 C 136,194 135,195 134,195 L 113,195 C 112,195 111,194 111,192 L 111,175 C 111,174 112,172 113,172 z "
     id="path4092"
     style="fill:#97c5d5;stroke:#202326;stroke-width:0" /><path
     class="fil1 str0"
     d="M 143,172 L 164,172 C 165,172 166,174 166,175 L 166,192 C 166,194 165,195 164,195 L 143,195 C 142,195 141,194 141,192 L 141,175 C 141,174 142,172 143,172 z "
     id="path4094"
     style="fill:#97c5d5;stroke:#202326;stroke-width:0" /><path
     class="fil1 str0"
     d="M 173,172 L 194,172 C 195,172 196,174 196,175 L 196,192 C 196,194 195,195 194,195 L 173,195 C 172,195 171,194 171,192 L 171,175 C 171,174 172,172 173,172 z "
     id="path4096"
     style="fill:#97c5d5;stroke:#202326;stroke-width:0" /><path
     class="fil1 str0"
     d="M 233,172 L 253,172 C 254,172 255,174 255,175 L 255,192 C 255,194 254,195 253,195 L 233,195 C 231,195 230,194 230,192 L 230,175 C 230,174 231,172 233,172 z "
     id="path4098"
     style="fill:#97c5d5;stroke:#202326;stroke-width:0" /><path
     class="fil1 str0"
     d="M 263,172 L 283,172 C 284,172 285,174 285,175 L 285,192 C 285,194 284,195 283,195 L 263,195 C 261,195 260,194 260,192 L 260,175 C 260,174 261,172 263,172 z "
     id="path4100"
     style="fill:#97c5d5;stroke:#202326;stroke-width:0" /><path
     class="fil1 str0"
     d="M 293,172 L 312,172 C 313,172 314,174 314,175 L 314,192 C 314,194 313,195 312,195 L 293,195 C 291,195 290,194 290,192 L 290,175 C 290,174 291,172 293,172 z "
     id="path4102"
     style="fill:#97c5d5;stroke:#202326;stroke-width:0" /><path
     class="fil1 str0"
     d="M 322,172 L 342,172 C 343,172 344,174 344,175 L 344,192 C 344,194 343,195 342,195 L 322,195 C 320,195 319,194 319,192 L 319,175 C 319,174 320,172 322,172 z "
     id="path4104"
     style="fill:#97c5d5;stroke:#202326;stroke-width:0" /><path
     class="fil1 str0"
     d="M 352,172 L 372,172 C 373,172 374,174 374,175 L 374,192 C 374,194 373,195 372,195 L 352,195 C 350,195 349,194 349,192 L 349,175 C 349,174 350,172 352,172 z "
     id="path4106"
     style="fill:#97c5d5;stroke:#202326;stroke-width:0" /><path
     class="fil1 str0"
     d="M 382,172 L 401,172 C 402,172 403,174 403,175 L 403,192 C 403,194 402,195 401,195 L 382,195 C 380,195 379,194 379,192 L 379,175 C 379,174 380,172 382,172 z "
     id="path4108"
     style="fill:#97c5d5;stroke:#202326;stroke-width:0" /><path
     class="fil2 str0"
     d="M 47,55 L 67,55 C 68,55 70,56 70,58 L 70,76 C 70,77 68,79 67,79 L 47,79 C 45,79 44,77 44,76 L 44,58 C 44,56 45,55 47,55 z "
     id="path4110"
     style="fill:#ffffff;stroke:#202326;stroke-width:0" /><path
     class="fil3 str0"
     d="M 106,55 L 126,55 C 128,55 129,56 129,58 L 129,76 C 129,77 128,79 126,79 L 106,79 C 105,79 104,77 104,76 L 104,58 C 104,56 105,55 106,55 z "
     id="path4112"
     style="fill:#edc07d;stroke:#202326;stroke-width:0" /><path
     class="fil3 str0"
     d="M 136,55 L 156,55 C 158,55 159,56 159,58 L 159,76 C 159,77 158,79 156,79 L 136,79 C 134,79 133,77 133,76 L 133,58 C 133,56 134,55 136,55 z "
     id="path4114"
     style="fill:#edc07d;stroke:#202326;stroke-width:0" /><path
     class="fil3 str0"
     d="M 166,55 L 186,55 C 188,55 189,56 189,58 L 189,76 C 189,77 188,79 186,79 L 166,79 C 165,79 163,77 163,76 L 163,58 C 163,56 165,55 166,55 z "
     id="path4116"
     style="fill:#edc07d;stroke:#202326;stroke-width:0" /><path
     class="fil3 str0"
     d="M 196,55 L 215,55 C 217,55 218,56 218,58 L 218,76 C 218,77 217,79 215,79 L 196,79 C 195,79 193,77 193,76 L 193,58 C 193,56 195,55 196,55 z "
     id="path4118"
     style="fill:#edc07d;stroke:#202326;stroke-width:0" /><path
     class="fil3 str0"
     d="M 240,54 L 260,54 C 261,54 262,56 262,57 L 262,75 C 262,77 261,78 260,78 L 240,78 C 238,78 237,77 237,75 L 237,57 C 237,56 238,54 240,54 z "
     id="path4120"
     style="fill:#edc07d;stroke:#202326;stroke-width:0" /><path
     class="fil3 str0"
     d="M 270,54 L 290,54 C 291,54 292,56 292,57 L 292,75 C 292,77 291,78 290,78 L 270,78 C 268,78 267,77 267,75 L 267,57 C 267,56 268,54 270,54 z "
     id="path4122"
     style="fill:#edc07d;stroke:#202326;stroke-width:0" /><path
     class="fil3 str0"
     d="M 299,54 L 319,54 C 320,54 321,56 321,57 L 321,75 C 321,77 320,78 319,78 L 299,78 C 298,78 297,77 297,75 L 297,57 C 297,56 298,54 299,54 z "
     id="path4124"
     style="fill:#edc07d;stroke:#202326;stroke-width:0" /><path
     class="fil3 str0"
     d="M 329,54 L 349,54 C 350,54 351,56 351,57 L 351,75 C 351,77 350,78 349,78 L 329,78 C 327,78 326,77 326,75 L 326,57 C 326,56 327,54 329,54 z "
     id="path4126"
     style="fill:#edc07d;stroke:#202326;stroke-width:0" /><path
     class="fil3 str0"
     d="M 373,54 L 393,54 C 394,54 395,56 395,57 L 395,75 C 395,77 394,78 393,78 L 373,78 C 371,78 370,77 370,75 L 370,57 C 370,56 371,54 373,54 z "
     id="path4128"
     style="fill:#edc07d;stroke:#202326;stroke-width:0" /><path
     class="fil3 str0"
     d="M 402,54 L 422,54 C 423,54 424,56 424,57 L 424,75 C 424,77 423,78 422,78 L 402,78 C 400,78 399,77 399,75 L 399,57 C 399,56 400,54 402,54 z "
     id="path4130"
     style="fill:#edc07d;stroke:#202326;stroke-width:0" /><path
     class="fil3 str0"
     d="M 432,54 L 452,54 C 453,54 454,56 454,57 L 454,75 C 454,77 453,78 452,78 L 432,78 C 430,78 429,77 429,75 L 429,57 C 429,56 430,54 432,54 z "
     id="path4132"
     style="fill:#edc07d;stroke:#202326;stroke-width:0" /><path
     class="fil3 str0"
     d="M 462,54 L 482,54 C 483,54 484,56 484,57 L 484,75 C 484,77 483,78 482,78 L 462,78 C 460,78 459,77 459,75 L 459,57 C 459,56 460,54 462,54 z "
     id="path4134"
     style="fill:#edc07d;stroke:#202326;stroke-width:0" /><path
     class="fil1 str0"
     d="M 162,197 L 151,197 C 149,197 148,198 148,200 L 148,218 C 148,220 149,221 151,221 L 162,221 L 330,221 L 348,221 C 348,221 349,220 349,218 L 349,200 C 349,198 348,197 348,197 L 330,197 L 162,197 z "
     id="path4190"
     style="fill:#97c5d5;stroke:#202326;stroke-width:0" /><path
     class="fil6 str0"
     d="M 391,197 L 410,197 C 411,197 412,198 412,200 L 412,218 C 412,220 411,221 410,221 L 391,221 C 389,221 388,220 388,218 L 388,200 C 388,198 389,197 391,197 z "
     id="path4192"
     style="fill:#e8a8a5;stroke:#202326;stroke-width:0" /><path
     class="fil7 str0"
     d="M 420,197 L 440,197 C 441,197 442,198 442,200 L 442,218 C 442,220 441,221 440,221 L 420,221 C 418,221 417,220 417,218 L 417,200 C 417,198 418,197 420,197 z "
     id="path4194"
     style="fill:#a97ca9;stroke:#202326;stroke-width:0" /><path
     class="fil1 str0"
     d="M 202,172 L 223,172 C 224,172 225,174 225,175 L 225,192 C 225,194 224,195 223,195 L 202,195 C 202,195 201,194 201,192 L 201,175 C 201,174 202,172 202,172 z "
     id="path4200"
     style="fill:#97c5d5;stroke:#202326;stroke-width:0" /><path
     class="fil1 str0"
     d="M 47,145 C 45,145 44,143 44,142 L 44,124 C 44,122 45,121 47,121 L 85,121 C 87,121 88,122 88,124 L 88,142 C 88,143 87,145 85,145 L 47,145 z "
     id="path4202"
     style="fill:#97c5d5;stroke:#202326;stroke-width:0" /><path
     class="fil1 str0"
     d="M 47,170 C 46,170 44,169 44,168 L 44,149 C 44,148 46,147 47,147 L 92,147 C 94,147 96,148 96,149 L 96,168 C 96,169 94,170 92,170 L 47,170 z "
     id="path4204"
     style="fill:#97c5d5;stroke:#202326;stroke-width:0" /><g
     transform="matrix(0.774557,0,0,0.77345,-210.373,-10.3173)"
     id="g4206">
   <text
   x="400"
   y="192"
   class="fil9 fnt0"
   id="text4208"
   style="font-size:18px;font-weight:normal;fill:#2b2828;font-family:Arial">Q</text>

  </g><g
     transform="matrix(0.774557,0,0,0.77345,-182.661,-10.3173)"
     id="g4210">
   <text
   x="400"
   y="192"
   class="fil9 fnt0"
   id="text4212"
   style="font-size:18px;font-weight:normal;fill:#2b2828;font-family:Arial">W</text>

  </g><g
     transform="matrix(0.774557,0,0,0.77345,-150,-10.3173)"
     id="g4214">
   <text
   x="400"
   y="192"
   class="fil9 fnt0"
   id="text4216"
   style="font-size:18px;font-weight:normal;fill:#2b2828;font-family:Arial">E</text>

  </g><g
     transform="matrix(0.774557,0,0,0.77345,-121.298,-10.3173)"
     id="g4218">
   <text
   x="400"
   y="192"
   class="fil9 fnt0"
   id="text4220"
   style="font-size:18px;font-weight:normal;fill:#2b2828;font-family:Arial">R</text>

  </g><g
     transform="matrix(0.774557,0,0,0.77345,-90.6165,-10.3173)"
     id="g4222">
   <text
   x="400"
   y="192"
   class="fil9 fnt0"
   id="text4224"
   style="font-size:18px;font-weight:normal;fill:#2b2828;font-family:Arial">T</text>

  </g><g
     transform="matrix(0.774557,0,0,0.77345,-60.9247,-10.3173)"
     id="g4226">
   <text
   x="400"
   y="192"
   class="fil9 fnt0"
   id="text4228"
   style="font-size:18px;font-weight:normal;fill:#2b2828;font-family:Arial">Y</text>

  </g><g
     transform="matrix(0.774557,0,0,0.77345,-31.2329,-10.3173)"
     id="g4230">
   <text
   x="400"
   y="192"
   class="fil9 fnt0"
   id="text4232"
   style="font-size:18px;font-weight:normal;fill:#2b2828;font-family:Arial">U</text>

  </g><g
     transform="matrix(0.774557,0,0,0.77345,1.42831,-10.3173)"
     id="g4234">
   <text
   x="400"
   y="192"
   class="fil9 fnt0"
   id="text4236"
   style="font-size:18px;font-weight:normal;fill:#2b2828;font-family:Arial">I</text>

  </g><g
     transform="matrix(0.774557,0,0,0.77345,27.1613,-10.3173)"
     id="g4238">
   <text
   x="400"
   y="192"
   class="fil9 fnt0"
   id="text4240"
   style="font-size:18px;font-weight:normal;fill:#2b2828;font-family:Arial">O</text>

  </g><g
     transform="matrix(0.774557,0,0,0.77345,57.8426,-10.3173)"
     id="g4242">
   <text
   x="400"
   y="192"
   class="fil9 fnt0"
   id="text4244"
   style="font-size:18px;font-weight:normal;fill:#2b2828;font-family:Arial">P</text>

  </g><g
     transform="matrix(0.774557,0,0,0.77345,-202.456,15.3789)"
     id="g4246">
   <text
   x="400"
   y="192"
   class="fil9 fnt0"
   id="text4248"
   style="font-size:18px;font-weight:normal;fill:#2b2828;font-family:Arial">A</text>

  </g><g
     transform="matrix(0.774557,0,0,0.77345,-171.774,15.3789)"
     id="g4250">
   <text
   x="400"
   y="192"
   class="fil9 fnt0"
   id="text4252"
   style="font-size:18px;font-weight:normal;fill:#2b2828;font-family:Arial">S</text>

  </g><g
     transform="matrix(0.774557,0,0,0.77345,-143.072,15.3789)"
     id="g4254">
   <text
   x="400"
   y="192"
   class="fil9 fnt0"
   id="text4256"
   style="font-size:18px;font-weight:normal;fill:#2b2828;font-family:Arial">D</text>

  </g><g
     transform="matrix(0.774557,0,0,0.77345,-112.39,15.3789)"
     id="g4258">
   <text
   x="400"
   y="192"
   class="fil9 fnt0"
   id="text4260"
   style="font-size:18px;font-weight:normal;fill:#2b2828;font-family:Arial">F</text>

  </g><g
     transform="matrix(0.774557,0,0,0.77345,-83.6883,15.3789)"
     id="g4262">
   <text
   x="400"
   y="192"
   class="fil9 fnt0"
   id="text4264"
   style="font-size:18px;font-weight:normal;fill:#2b2828;font-family:Arial">G</text>

  </g><g
     transform="matrix(0.774557,0,0,0.77345,-53.9965,15.3789)"
     id="g4266">
   <text
   x="400"
   y="192"
   class="fil9 fnt0"
   id="text4268"
   style="font-size:18px;font-weight:normal;fill:#2b2828;font-family:Arial">H</text>

  </g><g
     transform="matrix(0.774557,0,0,0.77345,-22.3252,15.3789)"
     id="g4270">
   <text
   x="400"
   y="192"
   class="fil9 fnt0"
   id="text4272"
   style="font-size:18px;font-weight:normal;fill:#2b2828;font-family:Arial">J</text>

  </g><g
     transform="matrix(0.774557,0,0,0.77345,5.38717,15.3789)"
     id="g4274">
   <text
   x="400"
   y="192"
   class="fil9 fnt0"
   id="text4276"
   style="font-size:18px;font-weight:normal;fill:#2b2828;font-family:Arial">K</text>

  </g><g
     transform="matrix(0.774557,0,0,0.77345,36.0689,15.3789)"
     id="g4278">
   <text
   x="400"
   y="192"
   class="fil9 fnt0"
   id="text4280"
   style="font-size:18px;font-weight:normal;fill:#2b2828;font-family:Arial">L</text>

  </g><g
     transform="matrix(0.774557,0,0,0.77345,-190.579,40.0868)"
     id="g4282">
   <text
   x="400"
   y="192"
   class="fil9 fnt0"
   id="text4284"
   style="font-size:18px;font-weight:normal;fill:#2b2828;font-family:Arial">Z</text>

  </g><g
     transform="matrix(0.774557,0,0,0.77345,-160.887,40.0868)"
     id="g4286">
   <text
   x="400"
   y="192"
   class="fil9 fnt0"
   id="text4288"
   style="font-size:18px;font-weight:normal;fill:#2b2828;font-family:Arial">X</text>

  </g><g
     transform="matrix(0.774557,0,0,0.77345,-131.195,40.0868)"
     id="g4290">
   <text
   x="400"
   y="192"
   class="fil9 fnt0"
   id="text4292"
   style="font-size:18px;font-weight:normal;fill:#2b2828;font-family:Arial">C</text>

  </g><g
     transform="matrix(0.774557,0,0,0.77345,-101.504,40.0868)"
     id="g4294">
   <text
   x="400"
   y="192"
   class="fil9 fnt0"
   id="text4296"
   style="font-size:18px;font-weight:normal;fill:#2b2828;font-family:Arial">V</text>

  </g><g
     transform="matrix(0.774557,0,0,0.77345,-71.8117,40.0868)"
     id="g4298">
   <text
   x="400"
   y="192"
   class="fil9 fnt0"
   id="text4300"
   style="font-size:18px;font-weight:normal;fill:#2b2828;font-family:Arial">B</text>

  </g><g
     transform="matrix(0.774557,0,0,0.77345,-42.1195,40.0868)"
     id="g4302">
   <text
   x="400"
   y="192"
   class="fil9 fnt0"
   id="text4304"
   style="font-size:18px;font-weight:normal;fill:#2b2828;font-family:Arial">N</text>

  </g><g
     transform="matrix(0.774557,0,0,0.77345,-13.4176,40.0868)"
     id="g4306">
   <text
   x="400"
   y="192"
   class="fil9 fnt0"
   id="text4308"
   style="font-size:18px;font-weight:normal;fill:#2b2828;font-family:Arial">M</text>

  </g><g
     transform="matrix(0.774557,0,0,0.77345,-198.497,-78.5109)"
     id="g4424">
   <text
   x="400"
   y="192"
   class="fil9 fnt3"
   id="text4426"
   style="font-size:13px;font-weight:normal;fill:#2b2828;font-family:Arial">F1</text>

  </g><g
     transform="matrix(0.774557,0,0,0.77345,-169.794,-78.5109)"
     id="g4428">
   <text
   x="400"
   y="192"
   class="fil9 fnt3"
   id="text4430"
   style="font-size:13px;font-weight:normal;fill:#2b2828;font-family:Arial">F2</text>

  </g><g
     transform="matrix(0.774557,0,0,0.77345,-140.103,-78.5109)"
     id="g4432">
   <text
   x="400"
   y="192"
   class="fil9 fnt3"
   id="text4434"
   style="font-size:13px;font-weight:normal;fill:#2b2828;font-family:Arial">F3</text>

  </g><g
     transform="matrix(0.774557,0,0,0.77345,-110.411,-78.5109)"
     id="g4436">
   <text
   x="400"
   y="192"
   class="fil9 fnt3"
   id="text4438"
   style="font-size:13px;font-weight:normal;fill:#2b2828;font-family:Arial">F4</text>

  </g><g
     transform="matrix(0.774557,0,0,0.77345,-65.8731,-78.5109)"
     id="g4440">
   <text
   x="400"
   y="192"
   class="fil9 fnt3"
   id="text4442"
   style="font-size:13px;font-weight:normal;fill:#2b2828;font-family:Arial">F5</text>

  </g><g
     transform="matrix(0.774557,0,0,0.77345,-36.1812,-78.5109)"
     id="g4444">
   <text
   x="400"
   y="192"
   class="fil9 fnt3"
   id="text4446"
   style="font-size:13px;font-weight:normal;fill:#2b2828;font-family:Arial">F6</text>

  </g><g
     transform="matrix(0.774557,0,0,0.77345,-6.48941,-78.5109)"
     id="g4448">
   <text
   x="400"
   y="192"
   class="fil9 fnt3"
   id="text4450"
   style="font-size:13px;font-weight:normal;fill:#2b2828;font-family:Arial">F7</text>

  </g><g
     transform="matrix(0.774557,0,0,0.77345,23.2024,-78.5109)"
     id="g4452">
   <text
   x="400"
   y="192"
   class="fil9 fnt3"
   id="text4454"
   style="font-size:13px;font-weight:normal;fill:#2b2828;font-family:Arial">F8</text>

  </g><g
     transform="matrix(0.774557,0,0,0.77345,66.7503,-78.5109)"
     id="g4456">
   <text
   x="400"
   y="192"
   class="fil9 fnt3"
   id="text4458"
   style="font-size:13px;font-weight:normal;fill:#2b2828;font-family:Arial">F9</text>

  </g><g
     transform="matrix(0.774557,0,0,0.77345,93.4728,-78.5109)"
     id="g4460">
   <text
   x="400"
   y="192"
   class="fil9 fnt3"
   id="text4462"
   style="font-size:13px;font-weight:normal;fill:#2b2828;font-family:Arial">F10</text>

  </g><g
     transform="matrix(0.774557,0,0,0.77345,124.154,-78.5109)"
     id="g4464">
   <text
   x="400"
   y="192"
   class="fil9 fnt3"
   id="text4466"
   style="font-size:13px;font-weight:normal;fill:#2b2828;font-family:Arial">F11</text>

  </g><g
     transform="matrix(0.774557,0,0,0.77345,152.856,-78.5109)"
     id="g4468">
   <text
   x="400"
   y="192"
   class="fil9 fnt3"
   id="text4470"
   style="font-size:13px;font-weight:normal;fill:#2b2828;font-family:Arial">F12</text>

  </g><g
     transform="matrix(0.774557,0,0,0.77345,-258.87,-79.4993)"
     id="g4472">
   <text
   x="400"
   y="192"
   class="fil9 fnt1"
   id="text4474"
   style="font-size:9px;font-weight:normal;fill:#2b2828;font-family:Arial">Esc</text>

  </g><g
     transform="matrix(0.774557,0,0,0.77345,-233.137,-31.0719)"
     id="g4512">
   <text
   x="400"
   y="192"
   class="fil9 fnt2"
   id="text4514"
   style="font-size:12px;font-weight:normal;fill:#2b2828;font-family:Arial">1</text>

  </g><g
     transform="matrix(0.774557,0,0,0.77345,-204.435,-31.0719)"
     id="g4516">
   <text
   x="400"
   y="192"
   class="fil9 fnt2"
   id="text4518"
   style="font-size:12px;font-weight:normal;fill:#2b2828;font-family:Arial">2</text>

  </g><g
     transform="matrix(0.774557,0,0,0.77345,-174.743,-31.0719)"
     id="g4520">
   <text
   x="400"
   y="192"
   class="fil9 fnt2"
   id="text4522"
   style="font-size:12px;font-weight:normal;fill:#2b2828;font-family:Arial">3</text>

  </g><g
     transform="matrix(0.774557,0,0,0.77345,-145.051,-31.0719)"
     id="g4524">
   <text
   x="400"
   y="192"
   class="fil9 fnt2"
   id="text4526"
   style="font-size:12px;font-weight:normal;fill:#2b2828;font-family:Arial">4</text>

  </g><g
     transform="matrix(0.774557,0,0,0.77345,-114.37,-31.0719)"
     id="g4528">
   <text
   x="400"
   y="192"
   class="fil9 fnt2"
   id="text4530"
   style="font-size:12px;font-weight:normal;fill:#2b2828;font-family:Arial">5</text>

  </g><g
     transform="matrix(0.774557,0,0,0.77345,-84.6778,-31.0719)"
     id="g4532">
   <text
   x="400"
   y="192"
   class="fil9 fnt2"
   id="text4534"
   style="font-size:12px;font-weight:normal;fill:#2b2828;font-family:Arial">6</text>

  </g><g
     transform="matrix(0.774557,0,0,0.77345,-54.986,-31.0719)"
     id="g4536">
   <text
   x="400"
   y="192"
   class="fil9 fnt2"
   id="text4538"
   style="font-size:12px;font-weight:normal;fill:#2b2828;font-family:Arial">7</text>

  </g><g
     transform="matrix(0.774557,0,0,0.77345,-26.2841,-31.0719)"
     id="g4540">
   <text
   x="400"
   y="192"
   class="fil9 fnt2"
   id="text4542"
   style="font-size:12px;font-weight:normal;fill:#2b2828;font-family:Arial">8</text>

  </g><g
     transform="matrix(0.774557,0,0,0.77345,3.40774,-31.0719)"
     id="g4544">
   <text
   x="400"
   y="192"
   class="fil9 fnt2"
   id="text4546"
   style="font-size:12px;font-weight:normal;fill:#2b2828;font-family:Arial">9</text>

  </g><g
     transform="matrix(0.774557,0,0,0.77345,34.0895,-31.0719)"
     id="g4548">
   <text
   x="400"
   y="192"
   class="fil9 fnt2"
   id="text4550"
   style="font-size:12px;font-weight:normal;fill:#2b2828;font-family:Arial">0</text>

  </g><path
     class="fil9"
     d="M 470,108 L 466,106 L 470,104 L 470,108 L 468,106 L 470,108 z "
     id="path4554"
     style="fill:#2b2828" /><path
     class="fil1 str0"
     d="M 410,195 C 409,195 408,194 408,192 L 408,175 C 408,174 409,172 410,172 L 483,172 C 485,172 486,174 486,175 L 486,192 C 486,194 485,195 483,195 L 410,195 z "
     id="path4556"
     style="fill:#97c5d5;stroke:#202326;stroke-width:0" /><path
     class="fil8 str0"
     d="M 446,147 L 429,147 C 427,147 426,148 426,149 L 426,168 C 426,169 427,170 429,170 L 483,170 C 485,170 486,169 486,168 L 486,124 C 486,122 485,121 483,121 L 452,121 C 450,121 449,122 449,124 L 449,144 C 449,146 449,147 446,147 L 446,147 z "
     id="path4558"
     style="fill:#f1efbe;stroke:#202326;stroke-width:0" /><path
     class="fil10 str1"
     d="M 467,129 L 467,140 L 457,140"
     id="path4560"
     style="fill:none;stroke:#2b2828;stroke-width:0" /><path
     class="fil9"
     d="M 458,142 L 455,140 L 458,138 L 458,142 L 457,140 L 458,142 z "
     id="path4562"
     style="fill:#2b2828" /><path
     class="fil1 str0"
     d="M 450,197 L 483,197 C 485,197 486,198 486,200 L 486,218 C 486,220 485,221 483,221 L 450,221 C 448,221 447,220 447,218 L 447,200 C 447,198 448,197 450,197 z "
     id="path4564"
     style="fill:#97c5d5;stroke:#202326;stroke-width:0" /><path
     class="fil1 str0"
     d="M 47,195 C 46,195 44,194 44,192 C 44,187 44,181 44,175 C 44,174 46,172 47,172 C 62,172 88,172 104,172 C 105,172 106,174 106,175 C 106,181 106,187 106,192 C 106,194 105,195 104,195 C 88,195 62,195 47,195 z "
     id="path4566"
     style="fill:#97c5d5;stroke:#202326;stroke-width:0" /><path
     class="fil1 str0"
     d="M 47,197 L 77,197 C 78,197 79,198 79,200 L 79,218 C 79,220 78,221 77,221 L 47,221 C 45,221 44,220 44,218 L 44,200 C 44,198 45,197 47,197 z "
     id="path4568"
     style="fill:#97c5d5;stroke:#202326;stroke-width:0" /><path
     class="fil6 str0"
     d="M 87,197 L 106,197 C 108,197 109,198 109,200 L 109,218 C 109,219 108,221 106,221 L 87,221 C 86,221 84,219 84,218 L 84,200 C 84,198 86,197 87,197 z "
     id="path4570"
     style="fill:#e8a8a5;stroke:#202326;stroke-width:0" /><path
     class="fil1 str0"
     d="M 116,197 L 141,197 C 142,197 143,198 143,200 L 143,218 C 143,219 142,221 141,221 L 116,221 C 115,221 114,219 114,218 L 114,200 C 114,198 115,197 116,197 z "
     id="path4572"
     style="fill:#97c5d5;stroke:#202326;stroke-width:0" /><g
     transform="matrix(0.774557,0,0,0.77345,150.877,63.8059)"
     id="g4574">
   <text
   x="400"
   y="192"
   class="fil9 fnt1"
   id="text4576"
   style="font-size:9px;font-weight:normal;fill:#2b2828;font-family:Arial">Ctrl</text>

  </g><g
     transform="matrix(0.774557,0,0,0.77345,-252.932,63.8059)"
     id="g4578">
   <text
   x="400"
   y="192"
   class="fil9 fnt1"
   id="text4580"
   style="font-size:9px;font-weight:normal;fill:#2b2828;font-family:Arial">Ctrl</text>

  </g><g
     transform="matrix(0.774557,0,0,0.77345,-185.63,62.8175)"
     id="g4582">
   <text
   x="400"
   y="192"
   class="fil9 fnt1"
   id="text4584"
   style="font-size:9px;font-weight:normal;fill:#2b2828;font-family:Arial">Alt</text>

  </g><g
     transform="matrix(0.774557,0,0,0.77345,3.40774,-45.8965)"
     id="g4586">
   <text
   x="400"
   y="194"
   class="fil9 fnt2"
   id="text4588"
   style="font-size:12px;font-weight:normal;fill:#2b2828;font-family:Arial">(</text>

  </g><g
     transform="matrix(0.774557,0,0,0.77345,34.0895,-45.8965)"
     id="g4590">
   <text
   x="400"
   y="194"
   class="fil9 fnt2"
   id="text4592"
   style="font-size:12px;font-weight:normal;fill:#2b2828;font-family:Arial">)</text>

  </g><g
     transform="matrix(0.774557,0,0,0.77345,-25.2942,-45.8965)"
     id="g4594">
   <text
   x="400"
   y="194"
   class="fil9 fnt2"
   id="text4596"
   style="font-size:12px;font-weight:normal;fill:#2b2828;font-family:Arial">*</text>

  </g><g
     transform="matrix(0.774557,0,0,0.77345,-55.9759,-44.9081)"
     id="g4598">
   <text
   x="400"
   y="192"
   class="fil9 fnt2"
   id="text4600"
   style="font-size:12px;font-weight:normal;fill:#2b2828;font-family:Arial">&amp;</text>

  </g><g
     transform="matrix(0.774557,0,0,0.77345,-84.6778,-44.9081)"
     id="g4602">
   <text
   x="400"
   y="192"
   class="fil9 fnt2"
   id="text4604"
   style="font-size:12px;font-weight:normal;fill:#2b2828;font-family:Arial">^</text>

  </g><g
     transform="matrix(0.774557,0,0,0.77345,-115.36,-44.9081)"
     id="g4606">
   <text
   x="400"
   y="192"
   class="fil9 fnt2"
   id="text4608"
   style="font-size:12px;font-weight:normal;fill:#2b2828;font-family:Arial">%</text>

  </g><g
     transform="matrix(0.774557,0,0,0.77345,-145.051,-44.9081)"
     id="g4610">
   <text
   x="400"
   y="192"
   class="fil9 fnt2"
   id="text4612"
   style="font-size:12px;font-weight:normal;fill:#2b2828;font-family:Arial">$</text>

  </g><g
     transform="matrix(0.774557,0,0,0.77345,-174.743,-44.9081)"
     id="g4614">
   <text
   x="400"
   y="192"
   class="fil9 fnt2"
   id="text4616"
   style="font-size:12px;font-weight:normal;fill:#2b2828;font-family:Arial">#</text>

  </g><g
     transform="matrix(0.774557,0,0,0.77345,-205.425,-44.9081)"
     id="g4618">
   <text
   x="400"
   y="192"
   class="fil9 fnt2"
   id="text4620"
   style="font-size:12px;font-weight:normal;fill:#2b2828;font-family:Arial">@</text>

  </g><g
     transform="matrix(0.774557,0,0,0.77345,-233.137,-44.9081)"
     id="g4622">
   <text
   x="400"
   y="192"
   class="fil9 fnt2"
   id="text4624"
   style="font-size:12px;font-weight:normal;fill:#2b2828;font-family:Arial">!</text>

  </g><g
     transform="matrix(0.774557,0,0,0.77345,-242.045,38.11)"
     id="g4626">
   <text
   x="400"
   y="192"
   class="fil9 fnt1"
   id="text4628"
   style="font-size:9px;font-weight:normal;fill:#2b2828;font-family:Arial">Shift</text>

  </g><path
     class="fil10 str2"
     d="M 54,177 L 50,181 L 52,181 L 52,189 L 57,189 L 57,181 L 59,181 L 54,177 z "
     id="path4630"
     style="fill:none;stroke:#2b2828;stroke-width:0" /><g
     transform="matrix(0.774557,0,0,0.77345,130.092,38.11)"
     id="g4632">
   <text
   x="400"
   y="192"
   class="fil9 fnt1"
   id="text4634"
   style="font-size:9px;font-weight:normal;fill:#2b2828;font-family:Arial">Shift</text>

  </g><path
     class="fil10 str2"
     d="M 417,177 L 413,181 L 415,181 L 415,189 L 419,189 L 419,181 L 421,181 L 417,177 z "
     id="path4636"
     style="fill:none;stroke:#2b2828;stroke-width:0" /><g
     transform="matrix(0.774557,0,0,0.77345,-262.829,-30.0835)"
     id="g4638">
   <text
   x="400"
   y="192"
   class="fil9 fnt2"
   id="text4640"
   style="font-size:12px;font-weight:normal;fill:#2b2828;font-family:Arial">`</text>

  </g><g
     transform="matrix(0.774557,0,0,0.77345,-263.819,-44.9081)"
     id="g4642">
   <text
   x="400"
   y="192"
   class="fil9 fnt2"
   id="text4644"
   style="font-size:12px;font-weight:normal;fill:#2b2828;font-family:Arial">~</text>

  </g><g
     transform="matrix(0.774557,0,0,0.77345,-262.829,-18.2238)"
     id="g4646">
   <text
   x="400"
   y="192"
   class="fil9 fnt1"
   id="text4648"
   style="font-size:9px;font-weight:normal;fill:#2b2828;font-family:Arial">Tab</text>

  </g><g
     transform="matrix(0.774557,0,0,0.77345,-247.983,8.46086)"
     id="g4650">
   <text
   x="400"
   y="192"
   class="fil9 fnt1"
   id="text4652"
   style="font-size:9px;font-weight:normal;fill:#2b2828;font-family:Arial">Caps</text>

  </g><g
     transform="matrix(0.774557,0,0,0.77345,-247.983,16.3673)"
     id="g4654">
   <text
   x="400"
   y="192"
   class="fil9 fnt1"
   id="text4656"
   style="font-size:9px;font-weight:normal;fill:#2b2828;font-family:Arial">Lock</text>

  </g><g
     transform="matrix(0.774557,0,0,0.77345,62.7914,-31.0719)"
     id="g4658">
   <text
   x="400"
   y="192"
   class="fil9 fnt2"
   id="text4660"
   style="font-size:12px;font-weight:normal;fill:#2b2828;font-family:Arial">-</text>

  </g><g
     transform="matrix(0.774557,0,0,0.77345,62.7914,-45.8965)"
     id="g4662">
   <text
   x="400"
   y="192"
   class="fil9 fnt2"
   id="text4664"
   style="font-size:12px;font-weight:normal;fill:#2b2828;font-family:Arial">_</text>

  </g><g
     transform="matrix(0.774557,0,0,0.77345,92.4829,-31.0719)"
     id="g4666">
   <text
   x="400"
   y="192"
   class="fil9 fnt2"
   id="text4668"
   style="font-size:12px;font-weight:normal;fill:#2b2828;font-family:Arial">=</text>

  </g><g
     transform="matrix(0.774557,0,0,0.77345,92.4829,-45.8965)"
     id="g4670">
   <text
   x="400"
   y="192"
   class="fil9 fnt2"
   id="text4672"
   style="font-size:12px;font-weight:normal;fill:#2b2828;font-family:Arial">+</text>

  </g><g
     transform="matrix(0.774557,0,0,0.77345,123.165,-31.0719)"
     id="g4674">
   <text
   x="400"
   y="192"
   class="fil9 fnt2"
   id="text4676"
   style="font-size:12px;font-weight:normal;fill:#2b2828;font-family:Arial">\</text>

  </g><g
     transform="matrix(0.774557,0,0,0.77345,123.165,-45.8965)"
     id="g4678">
   <text
   x="400"
   y="194"
   class="fil9 fnt2"
   id="text4680"
   style="font-size:12px;font-weight:normal;fill:#2b2828;font-family:Arial">|</text>

  </g><g
     transform="matrix(0.774557,0,0,0.77345,82.5861,-6.36408)"
     id="g4682">
   <text
   x="400"
   y="192"
   class="fil9 fnt2"
   id="text4684"
   style="font-size:12px;font-weight:normal;fill:#2b2828;font-family:Arial">[</text>

  </g><g
     transform="matrix(0.774557,0,0,0.77345,81.5962,-19.2122)"
     id="g4686">
   <text
   x="400"
   y="192"
   class="fil9 fnt2"
   id="text4688"
   style="font-size:12px;font-weight:normal;fill:#2b2828;font-family:Arial">{</text>

  </g><g
     transform="matrix(0.774557,0,0,0.77345,111.288,-6.36408)"
     id="g4690">
   <text
   x="400"
   y="192"
   class="fil9 fnt2"
   id="text4692"
   style="font-size:12px;font-weight:normal;fill:#2b2828;font-family:Arial">]</text>

  </g><g
     transform="matrix(0.774557,0,0,0.77345,111.288,-19.2122)"
     id="g4694">
   <text
   x="400"
   y="192"
   class="fil9 fnt2"
   id="text4696"
   style="font-size:12px;font-weight:normal;fill:#2b2828;font-family:Arial">}</text>

  </g><g
     transform="matrix(0.774557,0,0,0.77345,59.8224,18.3438)"
     id="g4698">
   <text
   x="400"
   y="192"
   class="fil9 fnt2"
   id="text4700"
   style="font-size:12px;font-weight:normal;fill:#2b2828;font-family:Arial">;</text>

  </g><g
     transform="matrix(0.774557,0,0,0.77345,59.8224,5.49565)"
     id="g4702">
   <text
   x="400"
   y="192"
   class="fil9 fnt2"
   id="text4704"
   style="font-size:12px;font-weight:normal;fill:#2b2828;font-family:Arial">:</text>

  </g><g
     transform="matrix(0.774557,0,0,0.77345,89.5139,19.3322)"
     id="g4706">
   <text
   x="400"
   y="192"
   class="fil9 fnt2"
   id="text4708"
   style="font-size:12px;font-weight:normal;fill:#2b2828;font-family:Arial">'</text>

  </g><g
     transform="matrix(0.774557,0,0,0.77345,88.524,6.48405)"
     id="g4710">
   <text
   x="400"
   y="192"
   class="fil9 fnt2"
   id="text4712"
   style="font-size:12px;font-weight:normal;fill:#2b2828;font-family:Arial">&quot;</text>

  </g><g
     transform="matrix(0.774557,0,0,0.77345,70.7091,45.0281)"
     id="g4714">
   <text
   x="400"
   y="192"
   class="fil9 fnt2"
   id="text4716"
   style="font-size:12px;font-weight:normal;fill:#2b2828;font-family:Arial">/</text>

  </g><g
     transform="matrix(0.774557,0,0,0.77345,70.7091,32.1803)"
     id="g4718">
   <text
   x="400"
   y="192"
   class="fil9 fnt2"
   id="text4720"
   style="font-size:12px;font-weight:normal;fill:#2b2828;font-family:Arial">?</text>

  </g><g
     transform="matrix(0.774557,0,0,0.77345,42.0072,45.0281)"
     id="g4722">
   <text
   x="400"
   y="192"
   class="fil9 fnt2"
   id="text4724"
   style="font-size:12px;font-weight:normal;fill:#2b2828;font-family:Arial">.</text>

  </g><g
     transform="matrix(0.774557,0,0,0.77345,41.0173,32.1803)"
     id="g4726">
   <text
   x="400"
   y="192"
   class="fil9 fnt2"
   id="text4728"
   style="font-size:12px;font-weight:normal;fill:#2b2828;font-family:Arial">&gt;</text>

  </g><g
     transform="matrix(0.774557,0,0,0.77345,11.3255,45.0281)"
     id="g4730">
   <text
   x="400"
   y="192"
   class="fil9 fnt2"
   id="text4732"
   style="font-size:12px;font-weight:normal;fill:#2b2828;font-family:Arial">,</text>

  </g><g
     transform="matrix(0.774557,0,0,0.77345,10.3359,32.1803)"
     id="g4734">
   <text
   x="400"
   y="192"
   class="fil9 fnt2"
   id="text4736"
   style="font-size:12px;font-weight:normal;fill:#2b2828;font-family:Arial">&lt;</text>

  </g><path
     class="fil9"
     d="M 70,129 L 70,126 L 71,126 L 71,129 L 70,129 z M 71,127 L 73,126 L 73,127 L 82,127 L 82,128 L 73,128 L 73,129 L 71,127 z "
     id="path4782"
     style="fill:#2b2828" /><path
     class="fil9"
     d="M 82,134 L 82,138 L 81,138 L 81,134 L 82,134 z M 81,136 L 79,138 L 79,136 L 70,136 L 70,136 L 79,136 L 79,134 L 81,136 z "
     id="path4784"
     style="fill:#2b2828" /><path
     class="fil1 str0"
     d="M 356,197 L 380,197 C 381,197 382,198 382,200 L 382,218 C 382,219 381,221 380,221 L 356,221 C 355,221 354,219 354,218 L 354,200 C 354,198 355,197 356,197 z "
     id="path4870"
     style="fill:#97c5d5;stroke:#202326;stroke-width:0" /><g
     transform="matrix(0.774557,0,0,0.77345,49.697,62.8175)"
     id="g4872">
   <text
   x="400"
   y="192"
   class="fil9 fnt1"
   id="text4874"
   style="font-size:9px;font-weight:normal;fill:#2b2828;font-family:Arial">Alt Gr</text>

  </g></g>
</svg>