<?xml version="1.0" encoding="UTF-8" standalone="no"?>
<!-- Created with Inkscape (http://www.inkscape.org/) -->

<svg
   xmlns:dc="http://purl.org/dc/elements/1.1/"
   xmlns:cc="http://creativecommons.org/ns#"
   xmlns:rdf="http://www.w3.org/1999/02/22-rdf-syntax-ns#"
   xmlns:svg="http://www.w3.org/2000/svg"
   xmlns="http://www.w3.org/2000/svg"
   xmlns:xlink="http://www.w3.org/1999/xlink"
   xmlns:sodipodi="http://sodipodi.sourceforge.net/DTD/sodipodi-0.dtd"
   xmlns:inkscape="http://www.inkscape.org/namespaces/inkscape"
   width="744.09448819"
   height="1052.3622047"
   id="svg2"
   version="1.1"
   inkscape:version="0.48.0 r9654"
   sodipodi:docname="ScrollAmountAction.svg">
  <defs
     id="defs4">
    <linearGradient
       id="linearGradient16899">
      <stop
         id="stop18397"
         offset="0"
         style="stop-color:#ffffff;stop-opacity:1;" />
      <stop
         style="stop-color:#ffffff;stop-opacity:0;"
         offset="1"
         id="stop16903" />
    </linearGradient>
    <filter
       id="filter15818"
       inkscape:label="Diffuse light"
       inkscape:menu="ABCs"
       inkscape:menu-tooltip="Basic diffuse bevel to use for building textures"
       color-interpolation-filters="sRGB">
      <feGaussianBlur
         id="feGaussianBlur15820"
         stdDeviation="6"
         in="SourceGraphic"
         result="result0" />
      <feDiffuseLighting
         id="feDiffuseLighting15822"
         diffuseConstant="1"
         surfaceScale="10"
         result="result5">
        <feDistantLight
           id="feDistantLight15824"
           elevation="25"
           azimuth="235" />
      </feDiffuseLighting>
      <feComposite
         id="feComposite15826"
         in2="SourceGraphic"
         k1="1"
         in="result5"
         result="result4"
         operator="arithmetic"
         k2="0"
         k3="0.6" />
    </filter>
    <filter
       id="filter15846"
       inkscape:label="Fancy blur"
       inkscape:menu="Blurs"
       inkscape:menu-tooltip="Smooth colorized contour which allows desaturation and hue rotation"
       color-interpolation-filters="sRGB">
      <feGaussianBlur
         id="feGaussianBlur15848"
         stdDeviation="6"
         in="SourceGraphic"
         result="result0" />
      <feDiffuseLighting
         id="feDiffuseLighting15850"
         diffuseConstant="1"
         surfaceScale="10"
         result="result5">
        <feDistantLight
           id="feDistantLight15852"
           elevation="25"
           azimuth="235" />
      </feDiffuseLighting>
      <feComposite
         id="feComposite15854"
         in2="SourceGraphic"
         k1="1"
         in="result5"
         result="fbSourceGraphic"
         operator="arithmetic"
         k2="0"
         k3="0.6" />
      <feColorMatrix
         result="fbSourceGraphicAlpha"
         in="fbSourceGraphic"
         values="0 0 0 -1 0 0 0 0 -1 0 0 0 0 -1 0 0 0 0 1 0"
         id="feColorMatrix15910" />
      <feGaussianBlur
         id="feGaussianBlur15912"
         stdDeviation="5"
         result="result1"
         in="fbSourceGraphic" />
      <feComposite
         id="feComposite15914"
         in2="result1"
         operator="arithmetic"
         k2="2"
         in="result1" />
    </filter>
    <filter
       id="filter15892"
       inkscape:label="Drop shadow"
       inkscape:menu="Blurs"
       inkscape:menu-tooltip="Blur inner borders and intersections"
       color-interpolation-filters="sRGB"
       width="1.5"
       height="1.5"
       x="-.25"
       y="-.25">
      <feGaussianBlur
         id="feGaussianBlur15894"
         stdDeviation="3" />
      <feColorMatrix
         id="feColorMatrix15896"
         result="fbSourceGraphic"
         values="1 0 0 0 0 0 1 0 0 0 0 0 1 0 0 0 0 0 6 -2.5 " />
      <feColorMatrix
         result="fbSourceGraphicAlpha"
         in="fbSourceGraphic"
         values="0 0 0 -1 0 0 0 0 -1 0 0 0 0 -1 0 0 0 0 1 0"
         id="feColorMatrix16825" />
      <feGaussianBlur
         id="feGaussianBlur16827"
         in="fbSourceGraphicAlpha"
         stdDeviation="2"
         result="blur" />
      <feColorMatrix
         id="feColorMatrix16829"
         result="bluralpha"
         type="matrix"
         values="1 0 0 0 0 0 1 0 0 0 0 0 1 0 0 0 0 0 0.5 0 " />
      <feOffset
         id="feOffset16831"
         in="bluralpha"
         dx="4"
         dy="4"
         result="offsetBlur" />
      <feMerge
         id="feMerge16833">
        <feMergeNode
           id="feMergeNode16835"
           in="offsetBlur" />
        <feMergeNode
           id="feMergeNode16837"
           in="fbSourceGraphic" />
      </feMerge>
    </filter>
    <filter
       id="filter15904"
       inkscape:label="Fancy blur"
       inkscape:menu="Blurs"
       inkscape:menu-tooltip="Smooth colorized contour which allows desaturation and hue rotation"
       color-interpolation-filters="sRGB">
      <feGaussianBlur
         id="feGaussianBlur15906"
         stdDeviation="5"
         result="result1" />
      <feComposite
         id="feComposite15908"
         in2="result1"
         operator="arithmetic"
         k2="2"
         in="result1" />
    </filter>
    <filter
       id="filter15892-4"
       inkscape:label="Cross-smooth"
       inkscape:menu="Blurs"
       inkscape:menu-tooltip="Blur inner borders and intersections"
       color-interpolation-filters="sRGB">
      <feGaussianBlur
         id="feGaussianBlur15894-0"
         stdDeviation="3" />
      <feColorMatrix
         id="feColorMatrix15896-9"
         result="fbSourceGraphic"
         values="1 0 0 0 0 0 1 0 0 0 0 0 1 0 0 0 0 0 6 -2.5 " />
    </filter>
    <filter
       id="filter16857"
       inkscape:label="Drop shadow"
       width="1.5"
       height="1.5"
       x="-.25"
       y="-.25">
      <feGaussianBlur
         id="feGaussianBlur16859"
         in="SourceAlpha"
         stdDeviation="2"
         result="blur" />
      <feColorMatrix
         id="feColorMatrix16861"
         result="bluralpha"
         type="matrix"
         values="1 0 0 0 0 0 1 0 0 0 0 0 1 0 0 0 0 0 0.5 0 " />
      <feOffset
         id="feOffset16863"
         in="bluralpha"
         dx="4"
         dy="4"
         result="offsetBlur" />
      <feMerge
         id="feMerge16865">
        <feMergeNode
           id="feMergeNode16867"
           in="offsetBlur" />
        <feMergeNode
           id="feMergeNode16869"
           in="SourceGraphic" />
      </feMerge>
    </filter>
    <filter
       id="filter16907"
       inkscape:label="Blur content"
       inkscape:menu="Blurs"
       inkscape:menu-tooltip="Blur the contents of objects, preserving the outline"
       color-interpolation-filters="sRGB">
      <feColorMatrix
         id="feColorMatrix16909"
         values="1 0 0 0 0 0 1 0 0 0 0 0 1 0 0 0 0 0 1 0 "
         result="result7" />
      <feGaussianBlur
         id="feGaussianBlur16911"
         result="result6"
         stdDeviation="5" />
      <feComposite
         id="feComposite16913"
         in2="result7"
         operator="atop"
         in="result6"
         result="result91" />
      <feComposite
         id="feComposite16915"
         in2="result91"
         operator="in" />
    </filter>
    <linearGradient
       inkscape:collect="always"
       xlink:href="#linearGradient16899"
       id="linearGradient18363"
       x1="388.12332"
       y1="225.75827"
       x2="470.15115"
       y2="325.75827"
       gradientUnits="userSpaceOnUse"
       gradientTransform="translate(-71,-142)" />
    <filter
       inkscape:collect="always"
       id="filter18393">
      <feGaussianBlur
         inkscape:collect="always"
         stdDeviation="2.0796285"
         id="feGaussianBlur18395" />
    </filter>
    <linearGradient
       inkscape:collect="always"
       xlink:href="#linearGradient16899"
       id="linearGradient18402"
       gradientUnits="userSpaceOnUse"
       gradientTransform="translate(-71,-142)"
       x1="388.12332"
       y1="225.75827"
       x2="470.15115"
       y2="325.75827" />
    <linearGradient
       inkscape:collect="always"
       xlink:href="#linearGradient16899"
       id="linearGradient18405"
       gradientUnits="userSpaceOnUse"
       gradientTransform="translate(-71,-142)"
       x1="392.97308"
       y1="248.75827"
       x2="482.76053"
       y2="342.25827" />
  </defs>
  <sodipodi:namedview
     id="base"
     pagecolor="#ffffff"
     bordercolor="#666666"
     borderopacity="1.0"
     inkscape:pageopacity="0.0"
     inkscape:pageshadow="2"
     inkscape:zoom="2"
     inkscape:cx="436.07336"
     inkscape:cy="817.43176"
     inkscape:document-units="px"
     inkscape:current-layer="layer1"
     showgrid="false"
     inkscape:window-width="1365"
     inkscape:window-height="1097"
     inkscape:window-x="542"
     inkscape:window-y="13"
     inkscape:window-maximized="0" />
  <metadata
     id="metadata7">
    <rdf:RDF>
      <cc:Work
         rdf:about="">
        <dc:format>image/svg+xml</dc:format>
        <dc:type
           rdf:resource="http://purl.org/dc/dcmitype/StillImage" />
        <dc:title></dc:title>
      </cc:Work>
    </rdf:RDF>
  </metadata>
  <g
     inkscape:label="Layer 1"
     inkscape:groupmode="layer"
     id="layer1">
    <rect
       style="fill:none;fill-opacity:1;stroke:none;stroke-width:2.13951658999999990;stroke-linejoin:miter;stroke-miterlimit:4;stroke-opacity:1;stroke-dasharray:none;stroke-dashoffset:0"
       id="rect18407"
       width="136.81557"
       height="137.36049"
       x="284.11469"
       y="71.931946"
       ry="8.6571732"
       inkscape:export-xdpi="15.725048"
       inkscape:export-ydpi="15.725048" />
    <path
       d="m 280.46356,235.82512 c -5e-5,2.08917 -0.24582,4.64932 -0.73733,7.68048 -0.86026,5.12038 -2.70357,9.33951 -5.52994,12.65742 -3.85051,4.54689 -9.2166,6.82031 -16.09827,6.82026 -5.85767,5e-5 -11.12135,-1.86374 -15.79106,-5.59139 -4.91551,-3.9733 -7.37326,-8.72495 -7.37326,-14.25496 0,-4.30099 1.88428,-8.39724 5.65283,-12.28876 4.26009,-4.3829 9.79003,-7.0045 16.58983,-7.8648 2.74446,-0.32761 5.26365,-0.49146 7.55759,-0.49155 10.48636,9e-5 15.72956,4.44452 15.72961,13.3333 z m 39.75414,-11.42855 c -7.53719,9.50339 -17.14289,23.38968 -28.81715,41.6589 -5.12037,7.98773 -9.87201,15.83205 -14.25496,23.53297 -4.58784,8.02868 -6.88174,12.596 -6.8817,13.70197 -4e-5,1.26985 1.0445,2.64209 3.13363,4.11674 2.29386,1.59754 3.44081,2.47823 3.44085,2.64208 -4e-5,0.12289 -1.6795,2.39631 -5.03839,6.82026 -3.03126,-0.94214 -7.53713,-1.65898 -13.51763,-2.15053 -5.20226,-0.36866 -10.38402,-0.73733 -15.54528,-1.10599 30.31223,-40.63479 48.37669,-67.8134 54.19343,-81.53592 0.69629,-1.59746 1.04448,-2.66248 1.04454,-3.19508 -6e-5,-2.25285 -1.47471,-4.54675 -4.42395,-6.8817 -0.40969,-0.32761 -0.40969,-0.71675 0,-1.16744 -6e-5,1e-4 1.24929,-1.45407 3.74807,-4.36251 6.84067,3.97346 14.48018,6.61554 22.91854,7.92625 z m 10.32255,64.14733 c -9e-5,2.08911 -0.24587,4.64927 -0.73732,7.68047 -0.86031,5.1613 -2.70362,9.38043 -5.52994,12.65743 -3.85057,4.5878 -9.21666,6.8817 -16.09828,6.8817 -5.85771,0 -11.12139,-1.88427 -15.79105,-5.65283 -4.91556,-3.97335 -7.37331,-8.725 -7.37326,-14.25496 -5e-5,-4.30104 1.88422,-8.39729 5.65283,-12.28876 4.301,-4.38295 9.83094,-7.00455 16.58982,-7.8648 2.74442,-0.32767 5.26361,-0.49152 7.55759,-0.49155 10.48632,3e-5 15.72952,4.44447 15.72961,13.3333 z m -56.09818,-48.17194 c -5e-5,-1.02399 -0.51208,-1.90468 -1.5361,-2.64208 -2.29394,-1.67939 -6.30826,-2.51912 -12.04298,-2.5192 -1.76142,8e-5 -3.11318,0.082 -4.05529,0.24578 -3.1951,0.57355 -6.39018,1.90483 -9.58524,3.99385 -3.35894,2.21204 -5.0384,4.19873 -5.03839,5.96004 -1e-5,1.55665 1.39272,2.76504 4.17818,3.62519 2.33485,0.77835 5.01789,1.16749 8.04914,1.16743 4.54681,6e-5 9.02197,-1.09568 13.42547,-3.28724 4.40343,-2.19143 6.60516,-4.37268 6.60521,-6.54377 z m 50.07669,52.84167 c -9e-5,-1.02404 -0.51212,-1.90474 -1.53609,-2.64208 -2.29399,-1.67944 -6.30832,-2.51917 -12.04299,-2.5192 -1.76146,3e-5 -3.11323,0.082 -4.05529,0.24578 -3.19515,0.5735 -6.39022,1.90478 -9.58523,3.99384 -3.31803,2.212 -4.97701,4.19868 -4.97695,5.96005 -6e-5,1.55659 1.37219,2.78547 4.11674,3.68663 2.33479,0.73734 5.01784,1.106 8.04913,1.10599 4.54677,10e-6 9.02192,-1.09574 13.42547,-3.28725 4.40339,-2.19148 6.60512,-4.37273 6.60521,-6.54376 z"
       style="font-size:125.83689880000000000px;font-style:normal;font-variant:normal;font-weight:normal;font-stretch:normal;line-height:125%;letter-spacing:0px;word-spacing:0px;fill:#666666;fill-opacity:1;stroke:none;font-family:Ravie;-inkscape-font-specification:Ravie;filter:url(#filter15818)"
       id="path15816"
       inkscape:connector-curvature="0" />
    <text
       xml:space="preserve"
       style="font-size:132.70225525000001000px;font-style:normal;font-weight:normal;line-height:125%;letter-spacing:0px;word-spacing:0px;fill:#000000;fill-opacity:1;stroke:none;font-family:Sans;filter:url(#filter15904)"
       x="125.88765"
       y="573.92224"
       id="text15788"
       sodipodi:linespacing="125%"><tspan
         sodipodi:role="line"
         id="tspan15790"
         x="125.88765"
         y="573.92224">%</tspan></text>
    <text
       xml:space="preserve"
       style="font-size:146.37884521px;font-style:normal;font-variant:normal;font-weight:normal;font-stretch:normal;line-height:125%;letter-spacing:0px;word-spacing:0px;fill:#000000;fill-opacity:1;stroke:none;font-family:Segoe UI;-inkscape-font-specification:Segoe UI"
       x="332.20636"
       y="577.27484"
       id="text15800"
       sodipodi:linespacing="125%"><tspan
         sodipodi:role="line"
         id="tspan15802"
         x="332.20636"
         y="577.27484">%</tspan></text>
    <path
       inkscape:connector-curvature="0"
       id="path15813-1"
       style="font-size:125.83689880000000000px;font-style:normal;font-variant:normal;font-weight:normal;font-stretch:normal;line-height:125%;letter-spacing:0px;word-spacing:0px;fill:#207221;fill-opacity:1;stroke:none;filter:url(#filter15846);font-family:Ravie;-inkscape-font-specification:Ravie"
       d="m 510.73377,152.03995 c -5e-5,2.08917 -0.24582,4.64932 -0.73733,7.68048 -0.86026,5.12038 -2.70357,9.33951 -5.52994,12.65742 -3.85051,4.54689 -9.2166,6.82031 -16.09827,6.82026 -5.85767,5e-5 -11.12135,-1.86374 -15.79106,-5.59139 -4.91551,-3.9733 -7.37326,-8.72495 -7.37326,-14.25496 0,-4.30099 1.88428,-8.39724 5.65283,-12.28876 4.26009,-4.3829 9.79003,-7.0045 16.58983,-7.8648 2.74446,-0.32761 5.26365,-0.49146 7.55759,-0.49155 10.48636,9e-5 15.72956,4.44452 15.72961,13.3333 z m 39.75414,-11.42855 c -7.53719,9.50339 -17.14289,23.38968 -28.81715,41.6589 -5.12037,7.98773 -9.87201,15.83205 -14.25496,23.53297 -4.58784,8.02868 -6.88174,12.596 -6.8817,13.70197 -4e-5,1.26985 1.0445,2.64209 3.13363,4.11674 2.29386,1.59754 3.44081,2.47823 3.44085,2.64208 -4e-5,0.12289 -1.6795,2.39631 -5.03839,6.82026 -3.03126,-0.94214 -7.53713,-1.65898 -13.51763,-2.15053 -5.20226,-0.36866 -10.38402,-0.73733 -15.54528,-1.10599 30.31223,-40.63479 48.37669,-67.8134 54.19343,-81.53592 0.69629,-1.59746 1.04448,-2.66248 1.04454,-3.19508 -6e-5,-2.25285 -1.47471,-4.54675 -4.42395,-6.8817 -0.40969,-0.32761 -0.40969,-0.71675 0,-1.16744 -6e-5,1e-4 1.24929,-1.45407 3.74807,-4.36251 6.84067,3.97346 14.48018,6.61554 22.91854,7.92625 z m 10.32255,64.14733 c -9e-5,2.08911 -0.24587,4.64927 -0.73732,7.68047 -0.86031,5.1613 -2.70362,9.38043 -5.52994,12.65743 -3.85057,4.5878 -9.21666,6.8817 -16.09828,6.8817 -5.85771,0 -11.12139,-1.88427 -15.79105,-5.65283 -4.91556,-3.97335 -7.37331,-8.725 -7.37326,-14.25496 -5e-5,-4.30104 1.88422,-8.39729 5.65283,-12.28876 4.301,-4.38295 9.83094,-7.00455 16.58982,-7.8648 2.74442,-0.32767 5.26361,-0.49152 7.55759,-0.49155 10.48632,3e-5 15.72952,4.44447 15.72961,13.3333 z m -56.09818,-48.17194 c -5e-5,-1.02399 -0.51208,-1.90468 -1.5361,-2.64208 -2.29394,-1.67939 -6.30826,-2.51912 -12.04298,-2.5192 -1.76142,8e-5 -3.11318,0.082 -4.05529,0.24578 -3.1951,0.57355 -6.39018,1.90483 -9.58524,3.99385 -3.35894,2.21204 -5.0384,4.19873 -5.03839,5.96004 -10e-6,1.55665 1.39272,2.76504 4.17818,3.62519 2.33485,0.77835 5.01789,1.16749 8.04914,1.16743 4.54681,6e-5 9.02197,-1.09568 13.42547,-3.28724 4.40343,-2.19143 6.60516,-4.37268 6.60521,-6.54377 z m 50.07669,52.84167 c -9e-5,-1.02404 -0.51212,-1.90474 -1.53609,-2.64208 -2.29399,-1.67944 -6.30832,-2.51917 -12.04299,-2.5192 -1.76146,3e-5 -3.11323,0.082 -4.05529,0.24578 -3.19515,0.5735 -6.39022,1.90478 -9.58523,3.99384 -3.31803,2.212 -4.97701,4.19868 -4.97695,5.96005 -6e-5,1.55659 1.37219,2.78547 4.11674,3.68663 2.33479,0.73734 5.01784,1.106 8.04913,1.10599 4.54677,1e-5 9.02192,-1.09574 13.42547,-3.28725 4.40339,-2.19148 6.60512,-4.37273 6.60521,-6.54376 z"
       transform="matrix(1.0754308,0,0,1.0274272,-37.898991,-3.4438049)"
       inkscape:export-filename="D:\Profiles\gburca1\Desktop\ShiftAmount.png"
       inkscape:export-xdpi="17.370432"
       inkscape:export-ydpi="17.370432" />
    <path
       inkscape:connector-curvature="0"
       id="path15813-7"
       style="font-size:125.8368988px;font-style:normal;font-variant:normal;font-weight:normal;font-stretch:normal;line-height:125%;letter-spacing:0px;word-spacing:0px;fill:#594fbf;fill-opacity:1;stroke:none;filter:url(#filter15892);font-family:Ravie;-inkscape-font-specification:Ravie"
       d="m 288.99476,361.39882 c -5e-5,2.08917 -0.24582,4.64932 -0.73733,7.68048 -0.86026,5.12038 -2.70357,9.33951 -5.52994,12.65742 -3.85051,4.54689 -9.2166,6.82031 -16.09827,6.82026 -5.85767,5e-5 -11.12135,-1.86374 -15.79106,-5.59139 -4.91551,-3.9733 -7.37326,-8.72495 -7.37326,-14.25496 0,-4.30099 1.88428,-8.39724 5.65283,-12.28876 4.26009,-4.3829 9.79003,-7.0045 16.58983,-7.8648 2.74446,-0.32761 5.26365,-0.49146 7.55759,-0.49155 10.48636,9e-5 15.72956,4.44452 15.72961,13.3333 z m 39.75414,-11.42855 c -7.53719,9.50339 -17.14289,23.38968 -28.81715,41.6589 -5.12037,7.98773 -9.87201,15.83205 -14.25496,23.53297 -4.58784,8.02868 -6.88174,12.596 -6.8817,13.70197 -4e-5,1.26985 1.0445,2.64209 3.13363,4.11674 2.29386,1.59754 3.44081,2.47823 3.44085,2.64208 -4e-5,0.12289 -1.6795,2.39631 -5.03839,6.82026 -3.03126,-0.94214 -7.53713,-1.65898 -13.51763,-2.15053 -5.20226,-0.36866 -10.38402,-0.73733 -15.54528,-1.10599 30.31223,-40.63479 48.37669,-67.8134 54.19343,-81.53592 0.69629,-1.59746 1.04448,-2.66248 1.04454,-3.19508 -6e-5,-2.25285 -1.47471,-4.54675 -4.42395,-6.8817 -0.40969,-0.32761 -0.40969,-0.71675 0,-1.16744 -6e-5,1e-4 1.24929,-1.45407 3.74807,-4.36251 6.84067,3.97346 14.48018,6.61554 22.91854,7.92625 z m 10.32255,64.14733 c -9e-5,2.08911 -0.24587,4.64927 -0.73732,7.68047 -0.86031,5.1613 -2.70362,9.38043 -5.52994,12.65743 -3.85057,4.5878 -9.21666,6.8817 -16.09828,6.8817 -5.85771,0 -11.12139,-1.88427 -15.79105,-5.65283 -4.91556,-3.97335 -7.37331,-8.725 -7.37326,-14.25496 -5e-5,-4.30104 1.88422,-8.39729 5.65283,-12.28876 4.301,-4.38295 9.83094,-7.00455 16.58982,-7.8648 2.74442,-0.32767 5.26361,-0.49152 7.55759,-0.49155 10.48632,3e-5 15.72952,4.44447 15.72961,13.3333 z m -56.09818,-48.17194 c -5e-5,-1.02399 -0.51208,-1.90468 -1.5361,-2.64208 -2.29394,-1.67939 -6.30826,-2.51912 -12.04298,-2.5192 -1.76142,8e-5 -3.11318,0.082 -4.05529,0.24578 -3.1951,0.57355 -6.39018,1.90483 -9.58524,3.99385 -3.35894,2.21204 -5.0384,4.19873 -5.03839,5.96004 -1e-5,1.55665 1.39272,2.76504 4.17818,3.62519 2.33485,0.77835 5.01789,1.16749 8.04914,1.16743 4.54681,6e-5 9.02197,-1.09568 13.42547,-3.28724 4.40343,-2.19143 6.60516,-4.37268 6.60521,-6.54377 z m 50.07669,52.84167 c -9e-5,-1.02404 -0.51212,-1.90474 -1.53609,-2.64208 -2.29399,-1.67944 -6.30832,-2.51917 -12.04299,-2.5192 -1.76146,3e-5 -3.11323,0.082 -4.05529,0.24578 -3.19515,0.5735 -6.39022,1.90478 -9.58523,3.99384 -3.31803,2.212 -4.97701,4.19868 -4.97695,5.96005 -6e-5,1.55659 1.37219,2.78547 4.11674,3.68663 2.33479,0.73734 5.01784,1.106 8.04913,1.10599 4.54677,1e-5 9.02192,-1.09574 13.42547,-3.28725 4.40339,-2.19148 6.60512,-4.37273 6.60521,-6.54376 z" />
    <path
       inkscape:connector-curvature="0"
       id="path15813-7-4"
       style="font-size:125.8368988px;font-style:normal;font-variant:normal;font-weight:normal;font-stretch:normal;line-height:125%;letter-spacing:0px;word-spacing:0px;fill:#008000;fill-opacity:1;stroke:none;filter:url(#filter15892-4);font-family:Ravie;-inkscape-font-specification:Ravie"
       d="m 348.22658,104.5174 c -5e-5,2.08917 -0.24582,4.64932 -0.73733,7.68048 -0.86026,5.12038 -2.70357,9.33951 -5.52994,12.65742 -3.85051,4.54689 -9.2166,6.82031 -16.09827,6.82026 -5.85767,5e-5 -11.12135,-1.86374 -15.79106,-5.59139 -4.91551,-3.9733 -7.37326,-8.72495 -7.37326,-14.25496 0,-4.30099 1.88428,-8.39724 5.65283,-12.28876 4.26009,-4.3829 9.79003,-7.0045 16.58983,-7.8648 2.74446,-0.32761 5.26365,-0.49146 7.55759,-0.49155 10.48636,9e-5 15.72956,4.44452 15.72961,13.3333 z m 39.75414,-11.42855 c -7.53719,9.50339 -17.14289,23.38968 -28.81715,41.6589 -5.12037,7.98773 -9.87201,15.83205 -14.25496,23.53297 -4.58784,8.02868 -6.88174,12.596 -6.8817,13.70197 -4e-5,1.26985 1.0445,2.64209 3.13363,4.11674 2.29386,1.59754 3.44081,2.47823 3.44085,2.64208 -4e-5,0.12289 -1.6795,2.39631 -5.03839,6.82026 -3.03126,-0.94214 -7.53713,-1.65898 -13.51763,-2.15053 -5.20226,-0.36866 -10.38402,-0.73733 -15.54528,-1.10599 30.31223,-40.63479 48.37669,-67.8134 54.19343,-81.53592 0.69629,-1.59746 1.04448,-2.66248 1.04454,-3.19508 -6e-5,-2.25285 -1.47471,-4.54675 -4.42395,-6.8817 -0.40969,-0.32761 -0.40969,-0.71675 0,-1.16744 -6e-5,1e-4 1.24929,-1.45407 3.74807,-4.36251 6.84067,3.97346 14.48018,6.61554 22.91854,7.92625 z m 10.32256,64.14733 c -9e-5,2.08911 -0.24587,4.64927 -0.73732,7.68047 -0.86032,5.1613 -2.70362,9.38043 -5.52995,12.65743 -3.85057,4.5878 -9.21666,6.8817 -16.09828,6.8817 -5.85771,0 -11.12139,-1.88427 -15.79105,-5.65283 -4.91556,-3.97335 -7.37331,-8.725 -7.37326,-14.25496 -5e-5,-4.30104 1.88422,-8.39729 5.65283,-12.28876 4.301,-4.38295 9.83094,-7.00455 16.58982,-7.8648 2.74442,-0.32767 5.26361,-0.49152 7.55759,-0.49155 10.48632,3e-5 15.72952,4.44447 15.72961,13.3333 z m -56.09819,-48.17194 c -5e-5,-1.02399 -0.51208,-1.90468 -1.5361,-2.64208 -2.29394,-1.67939 -6.30826,-2.51912 -12.04298,-2.5192 -1.76142,8e-5 -3.11318,0.082 -4.05529,0.24578 -3.1951,0.57355 -6.39018,1.90483 -9.58524,3.99385 -3.35894,2.21204 -5.0384,4.19873 -5.03839,5.96004 -10e-6,1.55665 1.39272,2.76504 4.17818,3.62519 2.33485,0.77835 5.01789,1.16749 8.04914,1.16743 4.54681,6e-5 9.02197,-1.09568 13.42547,-3.28724 4.40343,-2.19143 6.60516,-4.37268 6.60521,-6.54377 z m 50.07669,52.84167 c -9e-5,-1.02404 -0.51212,-1.90474 -1.53609,-2.64208 -2.29399,-1.67944 -6.30832,-2.51917 -12.04299,-2.5192 -1.76146,3e-5 -3.11323,0.082 -4.05529,0.24578 -3.19515,0.5735 -6.39022,1.90478 -9.58523,3.99384 -3.31803,2.212 -4.97701,4.19868 -4.97695,5.96005 -6e-5,1.55659 1.37219,2.78547 4.11674,3.68663 2.33479,0.73734 5.01784,1.106 8.04913,1.10599 4.54677,1e-5 9.02192,-1.09574 13.42547,-3.28725 4.40339,-2.19148 6.60512,-4.37273 6.60521,-6.54376 z"
       transform="matrix(1.0261488,0,0,1.0290507,46.334834,144.31763)" />
    <path
       inkscape:connector-curvature="0"
       id="path15813-8"
       style="font-size:125.83689880000000000px;font-style:normal;font-variant:normal;font-weight:normal;font-stretch:normal;line-height:125%;letter-spacing:0px;word-spacing:0px;fill:#217221;fill-opacity:1;stroke:none;filter:url(#filter16857);font-family:Ravie;-inkscape-font-specification:Ravie;stroke-opacity:1"
       d="m 349.72658,106.5174 c -5e-5,2.08917 -0.24581,4.64932 -0.73732,7.68048 -0.86026,5.12038 -2.70358,9.33951 -5.52995,12.65742 -3.8505,4.54689 -9.21659,6.82031 -16.09827,6.82026 -5.85767,5e-5 -11.12134,-1.86374 -15.79105,-5.59139 -4.91552,-3.9733 -7.37326,-8.72495 -7.37326,-14.25496 0,-4.30099 1.88427,-8.39724 5.65282,-12.28876 4.26009,-4.3829 9.79003,-7.0045 16.58984,-7.8648 2.74446,-0.32761 5.26364,-0.49146 7.55759,-0.49155 10.48635,9e-5 15.72955,4.44452 15.7296,13.3333 z m 39.75414,-11.42855 c -7.53719,9.50339 -17.14288,23.38968 -28.81714,41.6589 -5.12038,7.98773 -9.87202,15.83205 -14.25496,23.53297 -4.58784,8.02868 -6.88174,12.596 -6.8817,13.70197 -4e-5,1.26985 1.04449,2.64209 3.13363,4.11674 2.29385,1.59754 3.4408,2.47823 3.44085,2.64208 -5e-5,0.12289 -1.67951,2.39631 -5.03839,6.82026 -3.03127,-0.94214 -7.53713,-1.65898 -13.51763,-2.15053 -5.20227,-0.36866 -10.38402,-0.73733 -15.54529,-1.10599 30.31223,-40.63479 48.3767,-67.8134 54.19344,-81.53592 0.69628,-1.59746 1.04448,-2.66248 1.04453,-3.19508 -5e-5,-2.25285 -1.47471,-4.54675 -4.42394,-6.8817 -0.4097,-0.32761 -0.4097,-0.71675 0,-1.16744 -7e-5,1e-4 1.24928,-1.45407 3.74806,-4.36251 6.84068,3.97346 14.48019,6.61554 22.91854,7.92625 z m 10.32255,64.14733 c -9e-5,2.08911 -0.24586,4.64927 -0.73731,7.68047 -0.86032,5.1613 -2.70362,9.38043 -5.52994,12.65743 -3.85057,4.5878 -9.21666,6.8817 -16.09828,6.8817 -5.85771,0 -11.1214,-1.88427 -15.79105,-5.65283 -4.91556,-3.97335 -7.37332,-8.725 -7.37326,-14.25496 -6e-5,-4.30104 1.88421,-8.39729 5.65283,-12.28876 4.301,-4.38295 9.83094,-7.00455 16.58981,-7.8648 2.74442,-0.32767 5.26362,-0.49152 7.55759,-0.49155 10.48632,3e-5 15.72952,4.44447 15.72961,13.3333 z M 343.7051,111.06424 c -5e-5,-1.02399 -0.51209,-1.90468 -1.53611,-2.64208 -2.29393,-1.67939 -6.30825,-2.51912 -12.04298,-2.5192 -1.76142,8e-5 -3.11318,0.082 -4.05528,0.24578 -3.1951,0.57355 -6.39019,1.90483 -9.58524,3.99385 -3.35894,2.21204 -5.0384,4.19873 -5.0384,5.96004 0,1.55665 1.39273,2.76504 4.17818,3.62519 2.33485,0.77835 5.01789,1.16749 8.04914,1.16743 4.54681,6e-5 9.02198,-1.09568 13.42548,-3.28724 4.40343,-2.19143 6.60516,-4.37268 6.60521,-6.54377 z m 50.07669,52.84167 c -9e-5,-1.02404 -0.51212,-1.90474 -1.5361,-2.64208 -2.29399,-1.67944 -6.30831,-2.51917 -12.04298,-2.5192 -1.76147,3e-5 -3.11324,0.082 -4.05529,0.24578 -3.19516,0.5735 -6.39022,1.90478 -9.58524,3.99384 -3.31802,2.212 -4.97701,4.19868 -4.97695,5.96005 -6e-5,1.55659 1.37219,2.78547 4.11674,3.68663 2.33479,0.73734 5.01785,1.106 8.04913,1.10599 4.54677,1e-5 9.02193,-1.09574 13.42548,-3.28725 4.40339,-2.19148 6.60512,-4.37273 6.60521,-6.54376 z"
       transform="matrix(1,0,0,0.96676225,0,6.2341318)"
       inkscape:export-filename="D:\Profiles\gburca1\Desktop\path15813-8.png"
       inkscape:export-xdpi="15.277102"
       inkscape:export-ydpi="15.277102" />
    <path
       inkscape:connector-curvature="0"
       id="path15813-82"
       style="font-size:125.8368988px;font-style:normal;font-variant:normal;font-weight:normal;font-stretch:normal;line-height:125%;letter-spacing:0px;word-spacing:0px;fill:#000000;fill-opacity:1;stroke:none;font-family:Ravie;-inkscape-font-specification:Ravie"
       d="m 430.22658,358.5174 c -5e-5,2.08917 -0.24581,4.64932 -0.73732,7.68048 -0.86026,5.12038 -2.70358,9.33951 -5.52995,12.65742 -3.8505,4.54689 -9.21659,6.82031 -16.09827,6.82026 -5.85767,5e-5 -11.12134,-1.86374 -15.79105,-5.59139 -4.91552,-3.9733 -7.37326,-8.72495 -7.37326,-14.25496 0,-4.30099 1.88427,-8.39724 5.65282,-12.28876 4.26009,-4.3829 9.79003,-7.0045 16.58984,-7.8648 2.74446,-0.32761 5.26364,-0.49146 7.55759,-0.49155 10.48635,9e-5 15.72955,4.44452 15.7296,13.3333 z m 39.75414,-11.42855 c -7.53719,9.50339 -17.14288,23.38968 -28.81714,41.6589 -5.12038,7.98773 -9.87202,15.83205 -14.25496,23.53297 -4.58784,8.02868 -6.88174,12.596 -6.8817,13.70197 -4e-5,1.26985 1.04449,2.64209 3.13363,4.11674 2.29385,1.59754 3.4408,2.47823 3.44085,2.64208 -5e-5,0.12289 -1.67951,2.39631 -5.03839,6.82026 -3.03127,-0.94214 -7.53713,-1.65898 -13.51763,-2.15053 -5.20227,-0.36866 -10.38402,-0.73733 -15.54529,-1.10599 30.31223,-40.63479 48.3767,-67.8134 54.19344,-81.53592 0.69628,-1.59746 1.04448,-2.66248 1.04453,-3.19508 -5e-5,-2.25285 -1.47471,-4.54675 -4.42394,-6.8817 -0.4097,-0.32761 -0.4097,-0.71675 0,-1.16744 -7e-5,1e-4 1.24928,-1.45407 3.74806,-4.36251 6.84068,3.97346 14.48019,6.61554 22.91854,7.92625 z m 10.32255,64.14733 c -9e-5,2.08911 -0.24586,4.64927 -0.73731,7.68047 -0.86032,5.1613 -2.70362,9.38043 -5.52994,12.65743 -3.85057,4.5878 -9.21666,6.8817 -16.09828,6.8817 -5.85771,0 -11.1214,-1.88427 -15.79105,-5.65283 -4.91556,-3.97335 -7.37332,-8.725 -7.37326,-14.25496 -6e-5,-4.30104 1.88421,-8.39729 5.65283,-12.28876 4.301,-4.38295 9.83094,-7.00455 16.58981,-7.8648 2.74442,-0.32767 5.26362,-0.49152 7.55759,-0.49155 10.48632,3e-5 15.72952,4.44447 15.72961,13.3333 z M 424.2051,363.06424 c -5e-5,-1.02399 -0.51209,-1.90468 -1.53611,-2.64208 -2.29393,-1.67939 -6.30825,-2.51912 -12.04298,-2.5192 -1.76142,8e-5 -3.11318,0.082 -4.05528,0.24578 -3.1951,0.57355 -6.39019,1.90483 -9.58524,3.99385 -3.35894,2.21204 -5.0384,4.19873 -5.0384,5.96004 0,1.55665 1.39273,2.76504 4.17818,3.62519 2.33485,0.77835 5.01789,1.16749 8.04914,1.16743 4.54681,6e-5 9.02198,-1.09568 13.42548,-3.28724 4.40343,-2.19143 6.60516,-4.37268 6.60521,-6.54377 z m 50.07669,52.84167 c -9e-5,-1.02404 -0.51212,-1.90474 -1.5361,-2.64208 -2.29399,-1.67944 -6.30831,-2.51917 -12.04298,-2.5192 -1.76147,3e-5 -3.11324,0.082 -4.05529,0.24578 -3.19516,0.5735 -6.39022,1.90478 -9.58524,3.99384 -3.31802,2.212 -4.97701,4.19868 -4.97695,5.96005 -6e-5,1.55659 1.37219,2.78547 4.11674,3.68663 2.33479,0.73734 5.01785,1.106 8.04913,1.10599 4.54677,10e-6 9.02193,-1.09574 13.42548,-3.28725 4.40339,-2.19148 6.60512,-4.37273 6.60521,-6.54376 z" />
    <path
       inkscape:connector-curvature="0"
       id="path15813"
       style="font-size:125.83689880000000000px;font-style:normal;font-variant:normal;font-weight:normal;font-stretch:normal;line-height:125%;letter-spacing:0px;word-spacing:0px;fill:url(#linearGradient18405);fill-opacity:1;stroke:none;filter:url(#filter18393);font-family:Ravie;-inkscape-font-specification:Ravie"
       d="m 348.19705,104.54267 c -5e-5,2.01269 -0.23682,4.47912 -0.71034,7.39931 -0.82877,4.93293 -2.6046,8.99761 -5.3275,12.19405 -3.70955,4.38044 -8.87919,6.57063 -15.50894,6.57059 -5.64323,4e-5 -10.71421,-1.79552 -15.21297,-5.3867 -4.73556,-3.82785 -7.10334,-8.40555 -7.10334,-13.73311 0,-4.14354 1.8153,-8.08983 5.44589,-11.83889 4.10413,-4.22245 9.43163,-6.74808 15.9825,-7.57688 2.64399,-0.31562 5.07096,-0.47347 7.28092,-0.47356 10.10247,9e-5 15.15373,4.28182 15.15378,12.84519 z m 38.2988,-11.01017 c -7.26126,9.15549 -16.51531,22.53342 -27.7622,40.13384 -4.93292,7.69531 -9.51061,15.25246 -13.73311,22.67146 -4.41989,7.73477 -6.62981,12.13489 -6.62977,13.20037 -4e-5,1.22336 1.00626,2.54537 3.01891,3.96603 2.20989,1.53906 3.31485,2.38751 3.31489,2.54536 -4e-5,0.11839 -1.61802,2.30858 -4.85394,6.57058 -2.92029,-0.90765 -7.26121,-1.59825 -13.02278,-2.0718 -5.01181,-0.35517 -10.00387,-0.71034 -14.97619,-1.0655 29.20255,-39.14722 46.6057,-65.33087 52.2095,-78.55103 0.6708,-1.53898 1.00624,-2.56501 1.0063,-3.07811 -6e-5,-2.17038 -1.42072,-4.3803 -4.262,-6.62977 -0.39469,-0.31562 -0.39469,-0.69051 0,-1.1247 -5e-5,9e-5 1.20356,-1.40084 3.61086,-4.20281 6.59025,3.828 13.95009,6.37336 22.07953,7.63608 z m 9.94466,61.799 c -9e-5,2.01263 -0.23687,4.47907 -0.71033,7.3993 -0.82881,4.97236 -2.60464,9.03703 -5.3275,12.19407 -3.7096,4.41984 -8.87925,6.62977 -15.50894,6.62977 -5.64327,0 -10.71426,-1.81529 -15.21297,-5.44589 -4.73561,-3.82789 -7.10338,-8.40559 -7.10334,-13.73311 -4e-5,-4.14359 1.81525,-8.08988 5.44589,-11.83889 4.14355,-4.2225 9.47105,-6.74812 15.9825,-7.57688 2.64395,-0.31568 5.07091,-0.47353 7.28092,-0.47356 10.10243,3e-5 15.15368,4.28177 15.15377,12.84519 z m -54.04452,-46.40844 c -5e-5,-0.9865 -0.49333,-1.83495 -1.47986,-2.54536 -2.20997,-1.61791 -6.07733,-2.4269 -11.60211,-2.42697 -1.69694,7e-5 -2.99921,0.079 -3.90683,0.23678 -3.07813,0.55255 -6.15625,1.8351 -9.23434,3.84764 -3.23598,2.13106 -4.85395,4.04502 -4.85394,5.74185 -1e-5,1.49967 1.34173,2.66382 4.02522,3.49248 2.24937,0.74986 4.83419,1.12475 7.75447,1.12469 4.38036,6e-5 8.69169,-1.05557 12.93399,-3.1669 4.24223,-2.1112 6.36335,-4.2126 6.3634,-6.30421 z m 48.24347,50.90722 c -9e-5,-0.98655 -0.49338,-1.83501 -1.47986,-2.54536 -2.21001,-1.61795 -6.07738,-2.42694 -11.60212,-2.42697 -1.69697,3e-5 -2.99925,0.079 -3.90683,0.23678 -3.07818,0.55251 -6.15628,1.83505 -9.23433,3.84763 -3.19656,2.13103 -4.79481,4.04498 -4.79475,5.74187 -6e-5,1.4996 1.32196,2.68349 3.96603,3.55166 2.24932,0.71035 4.83415,1.06551 7.75447,1.06551 4.38032,0 8.69164,-1.05563 12.93398,-3.16691 4.24219,-2.11126 6.36332,-4.21266 6.36341,-6.30421 z"
       transform="matrix(1.0309786,0,0,1,-9.4278346,0)"
       inkscape:export-xdpi="21.085987"
       inkscape:export-ydpi="21.085987" />
  </g>
</svg>
